M48
; DRILL file KiCad 10.0.1 date 2026-06-02T22:19:57
; FORMAT={-:-/ absolute / metric / decimal}
; #@! TF.CreationDate,2026-06-02T22:19:57+02:00
; #@! TF.GenerationSoftware,Kicad,Pcbnew,10.0.1
; #@! TF.FileFunction,Plated,1,2,PTH
FMAT,2
METRIC
; #@! TA.AperFunction,Plated,PTH,ViaDrill
T1C0.300
; #@! TA.AperFunction,Plated,PTH,ComponentDrill
T2C0.900
%
G90
G05
T1
X97.16Y-68.24
X97.16Y-89.45
X97.19Y-73.86
X97.21Y-84.34
X102.54Y-84.24
X106.15Y-65.81
X106.17Y-68.04
X106.26Y-84.72
X106.27Y-82.52
X108.88Y-84.13
X110.25Y-85.38
X119.61Y-78.1
X120.89Y-79.38
X121.98Y-69.66
X122.12Y-75.36
X122.24Y-72.08
X122.95Y-89.99
X123.89Y-85.57
X123.98Y-83.53
X124.01Y-82.11
X124.525Y-71.165
X124.55Y-74.34
X126.72Y-79.02
X126.94Y-74.38
X127.03Y-78.0
X127.14Y-71.79
X127.18Y-80.05
X127.28Y-85.47
X127.37Y-83.14
T2
X125.675Y-75.99
X125.675Y-78.03
X125.675Y-80.07
X128.215Y-77.01
X128.215Y-79.05
X128.215Y-81.09
M30
