%TF.GenerationSoftware,KiCad,Pcbnew,10.0.1*%
%TF.CreationDate,2026-06-02T22:20:00+02:00*%
%TF.ProjectId,EnergeyMeterP1,456e6572-6765-4794-9d65-74657250312e,rev?*%
%TF.SameCoordinates,Original*%
%TF.FileFunction,Legend,Top*%
%TF.FilePolarity,Positive*%
%FSLAX46Y46*%
G04 Gerber Fmt 4.6, Leading zero omitted, Abs format (unit mm)*
G04 Created by KiCad (PCBNEW 10.0.1) date 2026-06-02 22:20:00*
%MOMM*%
%LPD*%
G01*
G04 APERTURE LIST*
%ADD10C,0.300000*%
%ADD11C,0.150000*%
%ADD12C,0.120000*%
%ADD13C,0.127000*%
G04 APERTURE END LIST*
D10*
X98083082Y-96047542D02*
X98083082Y-94847542D01*
X98083082Y-94847542D02*
X98540225Y-94847542D01*
X98540225Y-94847542D02*
X98654510Y-94904685D01*
X98654510Y-94904685D02*
X98711653Y-94961828D01*
X98711653Y-94961828D02*
X98768796Y-95076114D01*
X98768796Y-95076114D02*
X98768796Y-95247542D01*
X98768796Y-95247542D02*
X98711653Y-95361828D01*
X98711653Y-95361828D02*
X98654510Y-95418971D01*
X98654510Y-95418971D02*
X98540225Y-95476114D01*
X98540225Y-95476114D02*
X98083082Y-95476114D01*
X99911653Y-96047542D02*
X99225939Y-96047542D01*
X99568796Y-96047542D02*
X99568796Y-94847542D01*
X99568796Y-94847542D02*
X99454510Y-95018971D01*
X99454510Y-95018971D02*
X99340225Y-95133257D01*
X99340225Y-95133257D02*
X99225939Y-95190400D01*
X101340225Y-96047542D02*
X101340225Y-94847542D01*
X101340225Y-94847542D02*
X101625939Y-94847542D01*
X101625939Y-94847542D02*
X101797368Y-94904685D01*
X101797368Y-94904685D02*
X101911653Y-95018971D01*
X101911653Y-95018971D02*
X101968796Y-95133257D01*
X101968796Y-95133257D02*
X102025939Y-95361828D01*
X102025939Y-95361828D02*
X102025939Y-95533257D01*
X102025939Y-95533257D02*
X101968796Y-95761828D01*
X101968796Y-95761828D02*
X101911653Y-95876114D01*
X101911653Y-95876114D02*
X101797368Y-95990400D01*
X101797368Y-95990400D02*
X101625939Y-96047542D01*
X101625939Y-96047542D02*
X101340225Y-96047542D01*
X102483082Y-95990400D02*
X102654511Y-96047542D01*
X102654511Y-96047542D02*
X102940225Y-96047542D01*
X102940225Y-96047542D02*
X103054511Y-95990400D01*
X103054511Y-95990400D02*
X103111653Y-95933257D01*
X103111653Y-95933257D02*
X103168796Y-95818971D01*
X103168796Y-95818971D02*
X103168796Y-95704685D01*
X103168796Y-95704685D02*
X103111653Y-95590400D01*
X103111653Y-95590400D02*
X103054511Y-95533257D01*
X103054511Y-95533257D02*
X102940225Y-95476114D01*
X102940225Y-95476114D02*
X102711653Y-95418971D01*
X102711653Y-95418971D02*
X102597368Y-95361828D01*
X102597368Y-95361828D02*
X102540225Y-95304685D01*
X102540225Y-95304685D02*
X102483082Y-95190400D01*
X102483082Y-95190400D02*
X102483082Y-95076114D01*
X102483082Y-95076114D02*
X102540225Y-94961828D01*
X102540225Y-94961828D02*
X102597368Y-94904685D01*
X102597368Y-94904685D02*
X102711653Y-94847542D01*
X102711653Y-94847542D02*
X102997368Y-94847542D01*
X102997368Y-94847542D02*
X103168796Y-94904685D01*
X103683082Y-96047542D02*
X103683082Y-94847542D01*
X103683082Y-94847542D02*
X104083082Y-95704685D01*
X104083082Y-95704685D02*
X104483082Y-94847542D01*
X104483082Y-94847542D02*
X104483082Y-96047542D01*
X105740225Y-96047542D02*
X105340225Y-95476114D01*
X105054511Y-96047542D02*
X105054511Y-94847542D01*
X105054511Y-94847542D02*
X105511654Y-94847542D01*
X105511654Y-94847542D02*
X105625939Y-94904685D01*
X105625939Y-94904685D02*
X105683082Y-94961828D01*
X105683082Y-94961828D02*
X105740225Y-95076114D01*
X105740225Y-95076114D02*
X105740225Y-95247542D01*
X105740225Y-95247542D02*
X105683082Y-95361828D01*
X105683082Y-95361828D02*
X105625939Y-95418971D01*
X105625939Y-95418971D02*
X105511654Y-95476114D01*
X105511654Y-95476114D02*
X105054511Y-95476114D01*
X107168797Y-95418971D02*
X107568797Y-95418971D01*
X107740225Y-96047542D02*
X107168797Y-96047542D01*
X107168797Y-96047542D02*
X107168797Y-94847542D01*
X107168797Y-94847542D02*
X107740225Y-94847542D01*
X108254511Y-95247542D02*
X108254511Y-96047542D01*
X108254511Y-95361828D02*
X108311654Y-95304685D01*
X108311654Y-95304685D02*
X108425939Y-95247542D01*
X108425939Y-95247542D02*
X108597368Y-95247542D01*
X108597368Y-95247542D02*
X108711654Y-95304685D01*
X108711654Y-95304685D02*
X108768797Y-95418971D01*
X108768797Y-95418971D02*
X108768797Y-96047542D01*
X109797368Y-95990400D02*
X109683082Y-96047542D01*
X109683082Y-96047542D02*
X109454511Y-96047542D01*
X109454511Y-96047542D02*
X109340225Y-95990400D01*
X109340225Y-95990400D02*
X109283082Y-95876114D01*
X109283082Y-95876114D02*
X109283082Y-95418971D01*
X109283082Y-95418971D02*
X109340225Y-95304685D01*
X109340225Y-95304685D02*
X109454511Y-95247542D01*
X109454511Y-95247542D02*
X109683082Y-95247542D01*
X109683082Y-95247542D02*
X109797368Y-95304685D01*
X109797368Y-95304685D02*
X109854511Y-95418971D01*
X109854511Y-95418971D02*
X109854511Y-95533257D01*
X109854511Y-95533257D02*
X109283082Y-95647542D01*
X110368796Y-96047542D02*
X110368796Y-95247542D01*
X110368796Y-95476114D02*
X110425939Y-95361828D01*
X110425939Y-95361828D02*
X110483082Y-95304685D01*
X110483082Y-95304685D02*
X110597367Y-95247542D01*
X110597367Y-95247542D02*
X110711653Y-95247542D01*
X111625939Y-95247542D02*
X111625939Y-96218971D01*
X111625939Y-96218971D02*
X111568796Y-96333257D01*
X111568796Y-96333257D02*
X111511653Y-96390400D01*
X111511653Y-96390400D02*
X111397367Y-96447542D01*
X111397367Y-96447542D02*
X111225939Y-96447542D01*
X111225939Y-96447542D02*
X111111653Y-96390400D01*
X111625939Y-95990400D02*
X111511653Y-96047542D01*
X111511653Y-96047542D02*
X111283081Y-96047542D01*
X111283081Y-96047542D02*
X111168796Y-95990400D01*
X111168796Y-95990400D02*
X111111653Y-95933257D01*
X111111653Y-95933257D02*
X111054510Y-95818971D01*
X111054510Y-95818971D02*
X111054510Y-95476114D01*
X111054510Y-95476114D02*
X111111653Y-95361828D01*
X111111653Y-95361828D02*
X111168796Y-95304685D01*
X111168796Y-95304685D02*
X111283081Y-95247542D01*
X111283081Y-95247542D02*
X111511653Y-95247542D01*
X111511653Y-95247542D02*
X111625939Y-95304685D01*
X112083081Y-95247542D02*
X112368795Y-96047542D01*
X112654510Y-95247542D02*
X112368795Y-96047542D01*
X112368795Y-96047542D02*
X112254510Y-96333257D01*
X112254510Y-96333257D02*
X112197367Y-96390400D01*
X112197367Y-96390400D02*
X112083081Y-96447542D01*
X114025939Y-96047542D02*
X114025939Y-94847542D01*
X114025939Y-94847542D02*
X114425939Y-95704685D01*
X114425939Y-95704685D02*
X114825939Y-94847542D01*
X114825939Y-94847542D02*
X114825939Y-96047542D01*
X115854511Y-95990400D02*
X115740225Y-96047542D01*
X115740225Y-96047542D02*
X115511654Y-96047542D01*
X115511654Y-96047542D02*
X115397368Y-95990400D01*
X115397368Y-95990400D02*
X115340225Y-95876114D01*
X115340225Y-95876114D02*
X115340225Y-95418971D01*
X115340225Y-95418971D02*
X115397368Y-95304685D01*
X115397368Y-95304685D02*
X115511654Y-95247542D01*
X115511654Y-95247542D02*
X115740225Y-95247542D01*
X115740225Y-95247542D02*
X115854511Y-95304685D01*
X115854511Y-95304685D02*
X115911654Y-95418971D01*
X115911654Y-95418971D02*
X115911654Y-95533257D01*
X115911654Y-95533257D02*
X115340225Y-95647542D01*
X116254510Y-95247542D02*
X116711653Y-95247542D01*
X116425939Y-94847542D02*
X116425939Y-95876114D01*
X116425939Y-95876114D02*
X116483082Y-95990400D01*
X116483082Y-95990400D02*
X116597367Y-96047542D01*
X116597367Y-96047542D02*
X116711653Y-96047542D01*
X117568796Y-95990400D02*
X117454510Y-96047542D01*
X117454510Y-96047542D02*
X117225939Y-96047542D01*
X117225939Y-96047542D02*
X117111653Y-95990400D01*
X117111653Y-95990400D02*
X117054510Y-95876114D01*
X117054510Y-95876114D02*
X117054510Y-95418971D01*
X117054510Y-95418971D02*
X117111653Y-95304685D01*
X117111653Y-95304685D02*
X117225939Y-95247542D01*
X117225939Y-95247542D02*
X117454510Y-95247542D01*
X117454510Y-95247542D02*
X117568796Y-95304685D01*
X117568796Y-95304685D02*
X117625939Y-95418971D01*
X117625939Y-95418971D02*
X117625939Y-95533257D01*
X117625939Y-95533257D02*
X117054510Y-95647542D01*
X118140224Y-96047542D02*
X118140224Y-95247542D01*
X118140224Y-95476114D02*
X118197367Y-95361828D01*
X118197367Y-95361828D02*
X118254510Y-95304685D01*
X118254510Y-95304685D02*
X118368795Y-95247542D01*
X118368795Y-95247542D02*
X118483081Y-95247542D01*
X119683081Y-95247542D02*
X119968795Y-96047542D01*
X119968795Y-96047542D02*
X120254510Y-95247542D01*
X121340224Y-96047542D02*
X120654510Y-96047542D01*
X120997367Y-96047542D02*
X120997367Y-94847542D01*
X120997367Y-94847542D02*
X120883081Y-95018971D01*
X120883081Y-95018971D02*
X120768796Y-95133257D01*
X120768796Y-95133257D02*
X120654510Y-95190400D01*
X121854510Y-95933257D02*
X121911653Y-95990400D01*
X121911653Y-95990400D02*
X121854510Y-96047542D01*
X121854510Y-96047542D02*
X121797367Y-95990400D01*
X121797367Y-95990400D02*
X121854510Y-95933257D01*
X121854510Y-95933257D02*
X121854510Y-96047542D01*
X122654510Y-94847542D02*
X122768796Y-94847542D01*
X122768796Y-94847542D02*
X122883082Y-94904685D01*
X122883082Y-94904685D02*
X122940225Y-94961828D01*
X122940225Y-94961828D02*
X122997367Y-95076114D01*
X122997367Y-95076114D02*
X123054510Y-95304685D01*
X123054510Y-95304685D02*
X123054510Y-95590400D01*
X123054510Y-95590400D02*
X122997367Y-95818971D01*
X122997367Y-95818971D02*
X122940225Y-95933257D01*
X122940225Y-95933257D02*
X122883082Y-95990400D01*
X122883082Y-95990400D02*
X122768796Y-96047542D01*
X122768796Y-96047542D02*
X122654510Y-96047542D01*
X122654510Y-96047542D02*
X122540225Y-95990400D01*
X122540225Y-95990400D02*
X122483082Y-95933257D01*
X122483082Y-95933257D02*
X122425939Y-95818971D01*
X122425939Y-95818971D02*
X122368796Y-95590400D01*
X122368796Y-95590400D02*
X122368796Y-95304685D01*
X122368796Y-95304685D02*
X122425939Y-95076114D01*
X122425939Y-95076114D02*
X122483082Y-94961828D01*
X122483082Y-94961828D02*
X122540225Y-94904685D01*
X122540225Y-94904685D02*
X122654510Y-94847542D01*
D11*
X110960833Y-68994819D02*
X110627500Y-68518628D01*
X110389405Y-68994819D02*
X110389405Y-67994819D01*
X110389405Y-67994819D02*
X110770357Y-67994819D01*
X110770357Y-67994819D02*
X110865595Y-68042438D01*
X110865595Y-68042438D02*
X110913214Y-68090057D01*
X110913214Y-68090057D02*
X110960833Y-68185295D01*
X110960833Y-68185295D02*
X110960833Y-68328152D01*
X110960833Y-68328152D02*
X110913214Y-68423390D01*
X110913214Y-68423390D02*
X110865595Y-68471009D01*
X110865595Y-68471009D02*
X110770357Y-68518628D01*
X110770357Y-68518628D02*
X110389405Y-68518628D01*
X111341786Y-68090057D02*
X111389405Y-68042438D01*
X111389405Y-68042438D02*
X111484643Y-67994819D01*
X111484643Y-67994819D02*
X111722738Y-67994819D01*
X111722738Y-67994819D02*
X111817976Y-68042438D01*
X111817976Y-68042438D02*
X111865595Y-68090057D01*
X111865595Y-68090057D02*
X111913214Y-68185295D01*
X111913214Y-68185295D02*
X111913214Y-68280533D01*
X111913214Y-68280533D02*
X111865595Y-68423390D01*
X111865595Y-68423390D02*
X111294167Y-68994819D01*
X111294167Y-68994819D02*
X111913214Y-68994819D01*
X127433333Y-88744819D02*
X127100000Y-88268628D01*
X126861905Y-88744819D02*
X126861905Y-87744819D01*
X126861905Y-87744819D02*
X127242857Y-87744819D01*
X127242857Y-87744819D02*
X127338095Y-87792438D01*
X127338095Y-87792438D02*
X127385714Y-87840057D01*
X127385714Y-87840057D02*
X127433333Y-87935295D01*
X127433333Y-87935295D02*
X127433333Y-88078152D01*
X127433333Y-88078152D02*
X127385714Y-88173390D01*
X127385714Y-88173390D02*
X127338095Y-88221009D01*
X127338095Y-88221009D02*
X127242857Y-88268628D01*
X127242857Y-88268628D02*
X126861905Y-88268628D01*
X127766667Y-87744819D02*
X128385714Y-87744819D01*
X128385714Y-87744819D02*
X128052381Y-88125771D01*
X128052381Y-88125771D02*
X128195238Y-88125771D01*
X128195238Y-88125771D02*
X128290476Y-88173390D01*
X128290476Y-88173390D02*
X128338095Y-88221009D01*
X128338095Y-88221009D02*
X128385714Y-88316247D01*
X128385714Y-88316247D02*
X128385714Y-88554342D01*
X128385714Y-88554342D02*
X128338095Y-88649580D01*
X128338095Y-88649580D02*
X128290476Y-88697200D01*
X128290476Y-88697200D02*
X128195238Y-88744819D01*
X128195238Y-88744819D02*
X127909524Y-88744819D01*
X127909524Y-88744819D02*
X127814286Y-88697200D01*
X127814286Y-88697200D02*
X127766667Y-88649580D01*
X115130952Y-88864819D02*
X115130952Y-89674342D01*
X115130952Y-89674342D02*
X115178571Y-89769580D01*
X115178571Y-89769580D02*
X115226190Y-89817200D01*
X115226190Y-89817200D02*
X115321428Y-89864819D01*
X115321428Y-89864819D02*
X115511904Y-89864819D01*
X115511904Y-89864819D02*
X115607142Y-89817200D01*
X115607142Y-89817200D02*
X115654761Y-89769580D01*
X115654761Y-89769580D02*
X115702380Y-89674342D01*
X115702380Y-89674342D02*
X115702380Y-88864819D01*
X116130952Y-88960057D02*
X116178571Y-88912438D01*
X116178571Y-88912438D02*
X116273809Y-88864819D01*
X116273809Y-88864819D02*
X116511904Y-88864819D01*
X116511904Y-88864819D02*
X116607142Y-88912438D01*
X116607142Y-88912438D02*
X116654761Y-88960057D01*
X116654761Y-88960057D02*
X116702380Y-89055295D01*
X116702380Y-89055295D02*
X116702380Y-89150533D01*
X116702380Y-89150533D02*
X116654761Y-89293390D01*
X116654761Y-89293390D02*
X116083333Y-89864819D01*
X116083333Y-89864819D02*
X116702380Y-89864819D01*
X115130952Y-67977319D02*
X115130952Y-68786842D01*
X115130952Y-68786842D02*
X115178571Y-68882080D01*
X115178571Y-68882080D02*
X115226190Y-68929700D01*
X115226190Y-68929700D02*
X115321428Y-68977319D01*
X115321428Y-68977319D02*
X115511904Y-68977319D01*
X115511904Y-68977319D02*
X115607142Y-68929700D01*
X115607142Y-68929700D02*
X115654761Y-68882080D01*
X115654761Y-68882080D02*
X115702380Y-68786842D01*
X115702380Y-68786842D02*
X115702380Y-67977319D01*
X116083333Y-67977319D02*
X116702380Y-67977319D01*
X116702380Y-67977319D02*
X116369047Y-68358271D01*
X116369047Y-68358271D02*
X116511904Y-68358271D01*
X116511904Y-68358271D02*
X116607142Y-68405890D01*
X116607142Y-68405890D02*
X116654761Y-68453509D01*
X116654761Y-68453509D02*
X116702380Y-68548747D01*
X116702380Y-68548747D02*
X116702380Y-68786842D01*
X116702380Y-68786842D02*
X116654761Y-68882080D01*
X116654761Y-68882080D02*
X116607142Y-68929700D01*
X116607142Y-68929700D02*
X116511904Y-68977319D01*
X116511904Y-68977319D02*
X116226190Y-68977319D01*
X116226190Y-68977319D02*
X116130952Y-68929700D01*
X116130952Y-68929700D02*
X116083333Y-68882080D01*
X128698095Y-61754819D02*
X128698095Y-60754819D01*
X128698095Y-61231009D02*
X129269523Y-61231009D01*
X129269523Y-61754819D02*
X129269523Y-60754819D01*
X129650476Y-60754819D02*
X130269523Y-60754819D01*
X130269523Y-60754819D02*
X129936190Y-61135771D01*
X129936190Y-61135771D02*
X130079047Y-61135771D01*
X130079047Y-61135771D02*
X130174285Y-61183390D01*
X130174285Y-61183390D02*
X130221904Y-61231009D01*
X130221904Y-61231009D02*
X130269523Y-61326247D01*
X130269523Y-61326247D02*
X130269523Y-61564342D01*
X130269523Y-61564342D02*
X130221904Y-61659580D01*
X130221904Y-61659580D02*
X130174285Y-61707200D01*
X130174285Y-61707200D02*
X130079047Y-61754819D01*
X130079047Y-61754819D02*
X129793333Y-61754819D01*
X129793333Y-61754819D02*
X129698095Y-61707200D01*
X129698095Y-61707200D02*
X129650476Y-61659580D01*
X90438095Y-61554819D02*
X90438095Y-60554819D01*
X90438095Y-61031009D02*
X91009523Y-61031009D01*
X91009523Y-61554819D02*
X91009523Y-60554819D01*
X91438095Y-60650057D02*
X91485714Y-60602438D01*
X91485714Y-60602438D02*
X91580952Y-60554819D01*
X91580952Y-60554819D02*
X91819047Y-60554819D01*
X91819047Y-60554819D02*
X91914285Y-60602438D01*
X91914285Y-60602438D02*
X91961904Y-60650057D01*
X91961904Y-60650057D02*
X92009523Y-60745295D01*
X92009523Y-60745295D02*
X92009523Y-60840533D01*
X92009523Y-60840533D02*
X91961904Y-60983390D01*
X91961904Y-60983390D02*
X91390476Y-61554819D01*
X91390476Y-61554819D02*
X92009523Y-61554819D01*
X121954819Y-83308333D02*
X122669104Y-83308333D01*
X122669104Y-83308333D02*
X122811961Y-83355952D01*
X122811961Y-83355952D02*
X122907200Y-83451190D01*
X122907200Y-83451190D02*
X122954819Y-83594047D01*
X122954819Y-83594047D02*
X122954819Y-83689285D01*
X122954819Y-82308333D02*
X122954819Y-82879761D01*
X122954819Y-82594047D02*
X121954819Y-82594047D01*
X121954819Y-82594047D02*
X122097676Y-82689285D01*
X122097676Y-82689285D02*
X122192914Y-82784523D01*
X122192914Y-82784523D02*
X122240533Y-82879761D01*
X82677319Y-85484404D02*
X83486842Y-85484404D01*
X83486842Y-85484404D02*
X83582080Y-85436785D01*
X83582080Y-85436785D02*
X83629700Y-85389166D01*
X83629700Y-85389166D02*
X83677319Y-85293928D01*
X83677319Y-85293928D02*
X83677319Y-85103452D01*
X83677319Y-85103452D02*
X83629700Y-85008214D01*
X83629700Y-85008214D02*
X83582080Y-84960595D01*
X83582080Y-84960595D02*
X83486842Y-84912976D01*
X83486842Y-84912976D02*
X82677319Y-84912976D01*
X83010652Y-84008214D02*
X83677319Y-84008214D01*
X82629700Y-84246309D02*
X83343985Y-84484404D01*
X83343985Y-84484404D02*
X83343985Y-83865357D01*
X127433333Y-92144819D02*
X127100000Y-91668628D01*
X126861905Y-92144819D02*
X126861905Y-91144819D01*
X126861905Y-91144819D02*
X127242857Y-91144819D01*
X127242857Y-91144819D02*
X127338095Y-91192438D01*
X127338095Y-91192438D02*
X127385714Y-91240057D01*
X127385714Y-91240057D02*
X127433333Y-91335295D01*
X127433333Y-91335295D02*
X127433333Y-91478152D01*
X127433333Y-91478152D02*
X127385714Y-91573390D01*
X127385714Y-91573390D02*
X127338095Y-91621009D01*
X127338095Y-91621009D02*
X127242857Y-91668628D01*
X127242857Y-91668628D02*
X126861905Y-91668628D01*
X128385714Y-92144819D02*
X127814286Y-92144819D01*
X128100000Y-92144819D02*
X128100000Y-91144819D01*
X128100000Y-91144819D02*
X128004762Y-91287676D01*
X128004762Y-91287676D02*
X127909524Y-91382914D01*
X127909524Y-91382914D02*
X127814286Y-91430533D01*
X90398095Y-97314819D02*
X90398095Y-96314819D01*
X90398095Y-96791009D02*
X90969523Y-96791009D01*
X90969523Y-97314819D02*
X90969523Y-96314819D01*
X91921904Y-96314819D02*
X91445714Y-96314819D01*
X91445714Y-96314819D02*
X91398095Y-96791009D01*
X91398095Y-96791009D02*
X91445714Y-96743390D01*
X91445714Y-96743390D02*
X91540952Y-96695771D01*
X91540952Y-96695771D02*
X91779047Y-96695771D01*
X91779047Y-96695771D02*
X91874285Y-96743390D01*
X91874285Y-96743390D02*
X91921904Y-96791009D01*
X91921904Y-96791009D02*
X91969523Y-96886247D01*
X91969523Y-96886247D02*
X91969523Y-97124342D01*
X91969523Y-97124342D02*
X91921904Y-97219580D01*
X91921904Y-97219580D02*
X91874285Y-97267200D01*
X91874285Y-97267200D02*
X91779047Y-97314819D01*
X91779047Y-97314819D02*
X91540952Y-97314819D01*
X91540952Y-97314819D02*
X91445714Y-97267200D01*
X91445714Y-97267200D02*
X91398095Y-97219580D01*
X128678095Y-97214819D02*
X128678095Y-96214819D01*
X128678095Y-96691009D02*
X129249523Y-96691009D01*
X129249523Y-97214819D02*
X129249523Y-96214819D01*
X130154285Y-96548152D02*
X130154285Y-97214819D01*
X129916190Y-96167200D02*
X129678095Y-96881485D01*
X129678095Y-96881485D02*
X130297142Y-96881485D01*
%TO.C,R2*%
D12*
X111354564Y-66155000D02*
X110900436Y-66155000D01*
X111354564Y-67625000D02*
X110900436Y-67625000D01*
%TO.C,R3*%
X125047064Y-87545000D02*
X124592936Y-87545000D01*
X125047064Y-89015000D02*
X124592936Y-89015000D01*
%TO.C,U2*%
X113242857Y-80670000D02*
X113242857Y-88410000D01*
X113242857Y-88410000D02*
X114892857Y-88410000D01*
X116892857Y-88410000D02*
X118542857Y-88410000D01*
X118542857Y-80670000D02*
X113242857Y-80670000D01*
X118542857Y-88410000D02*
X118542857Y-80670000D01*
X110752857Y-80610000D02*
X121032857Y-80610000D01*
X121032857Y-88470000D01*
X110752857Y-88470000D01*
X110752857Y-80610000D01*
X114892857Y-88410000D02*
G75*
G02*
X116892857Y-88410000I1000000J0D01*
G01*
%TO.C,U3*%
X113242857Y-69522500D02*
X113242857Y-77262500D01*
X113242857Y-77262500D02*
X118542857Y-77262500D01*
X114892857Y-69522500D02*
X113242857Y-69522500D01*
X118542857Y-69522500D02*
X116892857Y-69522500D01*
X118542857Y-77262500D02*
X118542857Y-69522500D01*
X110752857Y-69462500D02*
X121032857Y-69462500D01*
X121032857Y-77322500D01*
X110752857Y-77322500D01*
X110752857Y-69462500D01*
X116892857Y-69522500D02*
G75*
G02*
X114892857Y-69522500I-1000000J0D01*
G01*
%TO.C,J1*%
X123405000Y-72330000D02*
X129145000Y-72330000D01*
X123405000Y-84750000D02*
X123405000Y-72330000D01*
X123405000Y-84750000D02*
X129145000Y-84750000D01*
X125175000Y-71670000D02*
X125675000Y-72170000D01*
X125175000Y-71670000D02*
X126175000Y-71670000D01*
X125675000Y-72170000D02*
X126175000Y-71670000D01*
X131895000Y-72330000D02*
X136625000Y-72330000D01*
X131895000Y-84750000D02*
X136625000Y-84750000D01*
X136625000Y-84750000D02*
X136625000Y-72330000D01*
%TO.C,U4*%
D13*
X84225000Y-74507500D02*
X84225000Y-83507500D01*
X84225000Y-74507500D02*
X85525000Y-74507500D01*
X84225000Y-83507500D02*
X85525000Y-83507500D01*
X85525000Y-70007500D02*
X85525000Y-74507500D01*
X85525000Y-83507500D02*
X85525000Y-88007500D01*
X85825000Y-70007500D02*
X85525000Y-70007500D01*
X85825000Y-88007500D02*
X85525000Y-88007500D01*
X108225000Y-70007500D02*
X105875000Y-70007500D01*
X108225000Y-70007500D02*
X108225000Y-88007500D01*
X108225000Y-88007500D02*
X105875000Y-88007500D01*
%TO.C,R1*%
D12*
X124592936Y-90855000D02*
X125047064Y-90855000D01*
X124592936Y-92325000D02*
X125047064Y-92325000D01*
%TD*%
M02*
