%TF.GenerationSoftware,KiCad,Pcbnew,10.0.1*%
%TF.CreationDate,2026-06-02T22:20:00+02:00*%
%TF.ProjectId,EnergeyMeterP1,456e6572-6765-4794-9d65-74657250312e,rev?*%
%TF.SameCoordinates,Original*%
%TF.FileFunction,Copper,L2,Bot*%
%TF.FilePolarity,Positive*%
%FSLAX46Y46*%
G04 Gerber Fmt 4.6, Leading zero omitted, Abs format (unit mm)*
G04 Created by KiCad (PCBNEW 10.0.1) date 2026-06-02 22:20:00*
%MOMM*%
%LPD*%
G01*
G04 APERTURE LIST*
%TA.AperFunction,ComponentPad*%
%ADD10R,1.520000X1.520000*%
%TD*%
%TA.AperFunction,ComponentPad*%
%ADD11C,1.520000*%
%TD*%
%TA.AperFunction,ViaPad*%
%ADD12C,0.600000*%
%TD*%
%TA.AperFunction,Conductor*%
%ADD13C,0.200000*%
%TD*%
%TA.AperFunction,Conductor*%
%ADD14C,1.000000*%
%TD*%
G04 APERTURE END LIST*
D10*
%TO.P,J1,1*%
%TO.N,+5VB*%
X125675000Y-75990000D03*
D11*
%TO.P,J1,2*%
%TO.N,/M_ENABLE*%
X128215000Y-77010000D03*
%TO.P,J1,3*%
%TO.N,DATA_GND*%
X125675000Y-78030000D03*
%TO.P,J1,4*%
%TO.N,unconnected-(J1-Pad4)*%
X128215000Y-79050000D03*
%TO.P,J1,5*%
%TO.N,/M_TX*%
X125675000Y-80070000D03*
%TO.P,J1,6*%
%TO.N,unconnected-(J1-Pad6)*%
X128215000Y-81090000D03*
%TD*%
D12*
%TO.N,+5VB*%
X124525000Y-71165000D03*
%TO.N,DATA_GND*%
X120890000Y-79380000D03*
X122240000Y-72080000D03*
X124010000Y-82110000D03*
X123890000Y-85570000D03*
X119610000Y-78100000D03*
X127140000Y-71790000D03*
X127280000Y-85470000D03*
X121980000Y-69660000D03*
X127180000Y-80050000D03*
X126720000Y-79020000D03*
X124550000Y-74340000D03*
X123980000Y-83530000D03*
X127030000Y-78000000D03*
X127370000Y-83140000D03*
X122950000Y-89990000D03*
X126940000Y-74380000D03*
X122120000Y-75360000D03*
%TO.N,GNDA*%
X110250000Y-85380000D03*
X106170000Y-68040000D03*
X97160000Y-68240000D03*
X97210000Y-84340000D03*
X97190000Y-73860000D03*
X106270000Y-82520000D03*
X106150000Y-65810000D03*
X97160000Y-89450000D03*
X106260000Y-84720000D03*
%TO.N,/RX*%
X108880000Y-84130000D03*
X102540000Y-84240000D03*
%TD*%
%TO.N,+5VB*%
D13*
X125675000Y-75990000D02*
X125675000Y-72315000D01*
X125675000Y-72315000D02*
X124525000Y-71165000D01*
%TO.N,DATA_GND*%
X121700000Y-78030000D02*
X119720000Y-76050000D01*
X123990000Y-78030000D02*
X123980000Y-78040000D01*
D14*
X125675000Y-78030000D02*
X123990000Y-78030000D01*
%TO.N,/RX*%
D13*
X102540000Y-84200000D02*
X102540000Y-84240000D01*
X108880000Y-84130000D02*
X108390000Y-83640000D01*
X103100000Y-83640000D02*
X102540000Y-84200000D01*
X108390000Y-83640000D02*
X103100000Y-83640000D01*
%TD*%
%TA.AperFunction,Conductor*%
%TO.N,DATA_GND*%
G36*
X127095266Y-79667771D02*
G01*
X127133978Y-79706762D01*
X127134059Y-79706704D01*
X127134435Y-79707222D01*
X127135451Y-79708245D01*
X127136918Y-79710639D01*
X127136922Y-79710645D01*
X127136923Y-79710646D01*
X127253544Y-79871161D01*
X127253546Y-79871163D01*
X127364702Y-79982319D01*
X127398187Y-80043642D01*
X127393203Y-80113334D01*
X127364702Y-80157681D01*
X127253546Y-80268836D01*
X127253546Y-80268837D01*
X127253544Y-80268839D01*
X127209890Y-80328923D01*
X127136917Y-80429361D01*
X127135447Y-80431761D01*
X127134651Y-80432480D01*
X127134059Y-80433296D01*
X127133887Y-80433171D01*
X127083633Y-80478634D01*
X127014702Y-80490053D01*
X126950541Y-80462392D01*
X126911519Y-80404435D01*
X126907250Y-80347570D01*
X126919720Y-80268836D01*
X126935500Y-80169209D01*
X126935500Y-79970790D01*
X126907250Y-79792431D01*
X126916204Y-79723138D01*
X126961200Y-79669686D01*
X127027952Y-79649046D01*
X127095266Y-79667771D01*
G37*
%TD.AperFunction*%
%TA.AperFunction,Conductor*%
G36*
X126725837Y-78727284D02*
G01*
X126725837Y-78727283D01*
X126752640Y-78690393D01*
X126754747Y-78686956D01*
X126806555Y-78640076D01*
X126875483Y-78628647D01*
X126939649Y-78656298D01*
X126978679Y-78714250D01*
X126982954Y-78771133D01*
X126954500Y-78950789D01*
X126954500Y-79149209D01*
X126982749Y-79327568D01*
X126973794Y-79396862D01*
X126928798Y-79450314D01*
X126862047Y-79470953D01*
X126794733Y-79452228D01*
X126756021Y-79413237D01*
X126755941Y-79413296D01*
X126755561Y-79412774D01*
X126754545Y-79411750D01*
X126753076Y-79409353D01*
X126636456Y-79248839D01*
X126496161Y-79108544D01*
X126335646Y-78991923D01*
X126335642Y-78991921D01*
X126246561Y-78946532D01*
X126215175Y-78923728D01*
X125763585Y-78472137D01*
X125848694Y-78449333D01*
X125951306Y-78390090D01*
X126035090Y-78306306D01*
X126094333Y-78203694D01*
X126117138Y-78118585D01*
X126725837Y-78727284D01*
G37*
%TD.AperFunction*%
%TA.AperFunction,Conductor*%
G36*
X127094582Y-77626654D02*
G01*
X127134770Y-77667133D01*
X127136919Y-77670641D01*
X127136926Y-77670650D01*
X127253544Y-77831161D01*
X127253546Y-77831163D01*
X127364702Y-77942319D01*
X127398187Y-78003642D01*
X127393203Y-78073334D01*
X127364702Y-78117681D01*
X127253546Y-78228836D01*
X127253546Y-78228837D01*
X127253544Y-78228839D01*
X127209652Y-78289251D01*
X127136925Y-78389350D01*
X127134767Y-78392873D01*
X127082955Y-78439748D01*
X127014025Y-78451171D01*
X126949862Y-78423514D01*
X126910837Y-78365558D01*
X126906566Y-78308685D01*
X126935000Y-78129162D01*
X126935000Y-77930836D01*
X126906566Y-77751314D01*
X126915520Y-77682021D01*
X126960517Y-77628569D01*
X127027268Y-77607929D01*
X127094582Y-77626654D01*
G37*
%TD.AperFunction*%
%TA.AperFunction,Conductor*%
G36*
X133003032Y-60500648D02*
G01*
X133336929Y-60517052D01*
X133349037Y-60518245D01*
X133452146Y-60533539D01*
X133676699Y-60566849D01*
X133688617Y-60569219D01*
X134009951Y-60649709D01*
X134021588Y-60653240D01*
X134092806Y-60678722D01*
X134333467Y-60764832D01*
X134344688Y-60769479D01*
X134644163Y-60911120D01*
X134654871Y-60916844D01*
X134938988Y-61087137D01*
X134949106Y-61093897D01*
X135215170Y-61291224D01*
X135224576Y-61298944D01*
X135470013Y-61521395D01*
X135478604Y-61529986D01*
X135665755Y-61736475D01*
X135701055Y-61775423D01*
X135708775Y-61784829D01*
X135906102Y-62050893D01*
X135912862Y-62061011D01*
X136041776Y-62276092D01*
X136083148Y-62345116D01*
X136088885Y-62355848D01*
X136230514Y-62655297D01*
X136235170Y-62666540D01*
X136346759Y-62978411D01*
X136350292Y-62990055D01*
X136430777Y-63311369D01*
X136433151Y-63323305D01*
X136481754Y-63650962D01*
X136482947Y-63663071D01*
X136499351Y-63996966D01*
X136499500Y-64003051D01*
X136499500Y-93996948D01*
X136499351Y-94003033D01*
X136482947Y-94336928D01*
X136481754Y-94349037D01*
X136433151Y-94676694D01*
X136430777Y-94688630D01*
X136350292Y-95009944D01*
X136346759Y-95021588D01*
X136235170Y-95333459D01*
X136230514Y-95344702D01*
X136088885Y-95644151D01*
X136083148Y-95654883D01*
X135912862Y-95938988D01*
X135906102Y-95949106D01*
X135708775Y-96215170D01*
X135701055Y-96224576D01*
X135478611Y-96470006D01*
X135470006Y-96478611D01*
X135224576Y-96701055D01*
X135215170Y-96708775D01*
X134949106Y-96906102D01*
X134938988Y-96912862D01*
X134654883Y-97083148D01*
X134644151Y-97088885D01*
X134344702Y-97230514D01*
X134333459Y-97235170D01*
X134021588Y-97346759D01*
X134009944Y-97350292D01*
X133688630Y-97430777D01*
X133676694Y-97433151D01*
X133349037Y-97481754D01*
X133336928Y-97482947D01*
X133021989Y-97498419D01*
X133003031Y-97499351D01*
X132996949Y-97499500D01*
X117994000Y-97499500D01*
X117926961Y-97479815D01*
X117881206Y-97427011D01*
X117870000Y-97375500D01*
X117870000Y-93874038D01*
X131399500Y-93874038D01*
X131399500Y-94125961D01*
X131438910Y-94374785D01*
X131516760Y-94614383D01*
X131631132Y-94838848D01*
X131779201Y-95042649D01*
X131779205Y-95042654D01*
X131957345Y-95220794D01*
X131957350Y-95220798D01*
X132135117Y-95349952D01*
X132161155Y-95368870D01*
X132304184Y-95441747D01*
X132385616Y-95483239D01*
X132385618Y-95483239D01*
X132385621Y-95483241D01*
X132625215Y-95561090D01*
X132874038Y-95600500D01*
X132874039Y-95600500D01*
X133125961Y-95600500D01*
X133125962Y-95600500D01*
X133374785Y-95561090D01*
X133614379Y-95483241D01*
X133838845Y-95368870D01*
X134042656Y-95220793D01*
X134220793Y-95042656D01*
X134368870Y-94838845D01*
X134483241Y-94614379D01*
X134561090Y-94374785D01*
X134600500Y-94125962D01*
X134600500Y-93874038D01*
X134561090Y-93625215D01*
X134483241Y-93385621D01*
X134483239Y-93385618D01*
X134483239Y-93385616D01*
X134441747Y-93304184D01*
X134368870Y-93161155D01*
X134349952Y-93135117D01*
X134220798Y-92957350D01*
X134220794Y-92957345D01*
X134042654Y-92779205D01*
X134042649Y-92779201D01*
X133838848Y-92631132D01*
X133838847Y-92631131D01*
X133838845Y-92631130D01*
X133768747Y-92595413D01*
X133614383Y-92516760D01*
X133374785Y-92438910D01*
X133125962Y-92399500D01*
X132874038Y-92399500D01*
X132749626Y-92419205D01*
X132625214Y-92438910D01*
X132385616Y-92516760D01*
X132161151Y-92631132D01*
X131957350Y-92779201D01*
X131957345Y-92779205D01*
X131779205Y-92957345D01*
X131779201Y-92957350D01*
X131631132Y-93161151D01*
X131516760Y-93385616D01*
X131438910Y-93625214D01*
X131399500Y-93874038D01*
X117870000Y-93874038D01*
X117870000Y-84429778D01*
X129114500Y-84429778D01*
X129114500Y-84650221D01*
X129148985Y-84867952D01*
X129217103Y-85077603D01*
X129217104Y-85077606D01*
X129317187Y-85274025D01*
X129446752Y-85452358D01*
X129446756Y-85452363D01*
X129602636Y-85608243D01*
X129602641Y-85608247D01*
X129758192Y-85721260D01*
X129780978Y-85737815D01*
X129909375Y-85803237D01*
X129977393Y-85837895D01*
X129977396Y-85837896D01*
X130082221Y-85871955D01*
X130187049Y-85906015D01*
X130404778Y-85940500D01*
X130404779Y-85940500D01*
X130625221Y-85940500D01*
X130625222Y-85940500D01*
X130842951Y-85906015D01*
X131052606Y-85837895D01*
X131249022Y-85737815D01*
X131427365Y-85608242D01*
X131583242Y-85452365D01*
X131712815Y-85274022D01*
X131812895Y-85077606D01*
X131881015Y-84867951D01*
X131915500Y-84650222D01*
X131915500Y-84429778D01*
X131881015Y-84212049D01*
X131812895Y-84002394D01*
X131812895Y-84002393D01*
X131778237Y-83934375D01*
X131712815Y-83805978D01*
X131696260Y-83783192D01*
X131583247Y-83627641D01*
X131583243Y-83627636D01*
X131427363Y-83471756D01*
X131427358Y-83471752D01*
X131249025Y-83342187D01*
X131249024Y-83342186D01*
X131249022Y-83342185D01*
X131186096Y-83310122D01*
X131052606Y-83242104D01*
X131052603Y-83242103D01*
X130842952Y-83173985D01*
X130734086Y-83156742D01*
X130625222Y-83139500D01*
X130404778Y-83139500D01*
X130332201Y-83150995D01*
X130187047Y-83173985D01*
X129977396Y-83242103D01*
X129977393Y-83242104D01*
X129780974Y-83342187D01*
X129602641Y-83471752D01*
X129602636Y-83471756D01*
X129446756Y-83627636D01*
X129446752Y-83627641D01*
X129317187Y-83805974D01*
X129217104Y-84002393D01*
X129217103Y-84002396D01*
X129148985Y-84212047D01*
X129114500Y-84429778D01*
X117870000Y-84429778D01*
X117870000Y-71086153D01*
X123724500Y-71086153D01*
X123724500Y-71243846D01*
X123755261Y-71398489D01*
X123755264Y-71398501D01*
X123815602Y-71544172D01*
X123815609Y-71544185D01*
X123903210Y-71675288D01*
X123903213Y-71675292D01*
X124014707Y-71786786D01*
X124014711Y-71786789D01*
X124145814Y-71874390D01*
X124145827Y-71874397D01*
X124291498Y-71934735D01*
X124291503Y-71934737D01*
X124356147Y-71947595D01*
X124446849Y-71965638D01*
X124508760Y-71998023D01*
X124510339Y-71999574D01*
X125038181Y-72527416D01*
X125071666Y-72588739D01*
X125074500Y-72615097D01*
X125074500Y-74605500D01*
X125054815Y-74672539D01*
X125002011Y-74718294D01*
X124950501Y-74729500D01*
X124867130Y-74729500D01*
X124867123Y-74729501D01*
X124807516Y-74735908D01*
X124672671Y-74786202D01*
X124672664Y-74786206D01*
X124557455Y-74872452D01*
X124557452Y-74872455D01*
X124471206Y-74987664D01*
X124471202Y-74987671D01*
X124420908Y-75122517D01*
X124414501Y-75182116D01*
X124414501Y-75182123D01*
X124414500Y-75182135D01*
X124414500Y-76797870D01*
X124414501Y-76797876D01*
X124420908Y-76857483D01*
X124471202Y-76992328D01*
X124471206Y-76992335D01*
X124557452Y-77107544D01*
X124557455Y-77107547D01*
X124608765Y-77145958D01*
X124650636Y-77201891D01*
X124655620Y-77271583D01*
X124634773Y-77318108D01*
X124597353Y-77369613D01*
X124507311Y-77546327D01*
X124507310Y-77546330D01*
X124446026Y-77734947D01*
X124415000Y-77930836D01*
X124415000Y-78129163D01*
X124446026Y-78325052D01*
X124507310Y-78513669D01*
X124507311Y-78513672D01*
X124597350Y-78690380D01*
X124624161Y-78727283D01*
X125232861Y-78118582D01*
X125255667Y-78203694D01*
X125314910Y-78306306D01*
X125398694Y-78390090D01*
X125501306Y-78449333D01*
X125586414Y-78472137D01*
X125134823Y-78923728D01*
X125103438Y-78946531D01*
X125014356Y-78991921D01*
X124934096Y-79050233D01*
X124853839Y-79108544D01*
X124853837Y-79108546D01*
X124853836Y-79108546D01*
X124713546Y-79248836D01*
X124713546Y-79248837D01*
X124713544Y-79248839D01*
X124659477Y-79323255D01*
X124596926Y-79409349D01*
X124596924Y-79409352D01*
X124506850Y-79586131D01*
X124476193Y-79680484D01*
X124445537Y-79774832D01*
X124445536Y-79774835D01*
X124445536Y-79774837D01*
X124414500Y-79970790D01*
X124414500Y-80169209D01*
X124430280Y-80268837D01*
X124445537Y-80365168D01*
X124482405Y-80478634D01*
X124506850Y-80553868D01*
X124565994Y-80669943D01*
X124596923Y-80730646D01*
X124713544Y-80891161D01*
X124853839Y-81031456D01*
X125014354Y-81148077D01*
X125095081Y-81189209D01*
X125191131Y-81238149D01*
X125191133Y-81238149D01*
X125191136Y-81238151D01*
X125379832Y-81299463D01*
X125477814Y-81314981D01*
X125575791Y-81330500D01*
X125575796Y-81330500D01*
X125774209Y-81330500D01*
X125863278Y-81316392D01*
X125970168Y-81299463D01*
X126158864Y-81238151D01*
X126335646Y-81148077D01*
X126496161Y-81031456D01*
X126636456Y-80891161D01*
X126753077Y-80730646D01*
X126753089Y-80730622D01*
X126754540Y-80728256D01*
X126755338Y-80727533D01*
X126755941Y-80726704D01*
X126756115Y-80726830D01*
X126806346Y-80681375D01*
X126875275Y-80669943D01*
X126939441Y-80697592D01*
X126978473Y-80755543D01*
X126982749Y-80812431D01*
X126954500Y-80990790D01*
X126954500Y-81189209D01*
X126985536Y-81385162D01*
X126985537Y-81385168D01*
X127032140Y-81528596D01*
X127046850Y-81573868D01*
X127108021Y-81693922D01*
X127136923Y-81750646D01*
X127253544Y-81911161D01*
X127393839Y-82051456D01*
X127554354Y-82168077D01*
X127667800Y-82225880D01*
X127731131Y-82258149D01*
X127731133Y-82258149D01*
X127731136Y-82258151D01*
X127919832Y-82319463D01*
X128017814Y-82334981D01*
X128115791Y-82350500D01*
X128115796Y-82350500D01*
X128314209Y-82350500D01*
X128403278Y-82336392D01*
X128510168Y-82319463D01*
X128698864Y-82258151D01*
X128875646Y-82168077D01*
X129036161Y-82051456D01*
X129176456Y-81911161D01*
X129293077Y-81750646D01*
X129383151Y-81573864D01*
X129444463Y-81385168D01*
X129467748Y-81238149D01*
X129475500Y-81189209D01*
X129475500Y-80990790D01*
X129447250Y-80812431D01*
X129444463Y-80794832D01*
X129383151Y-80606136D01*
X129383149Y-80606133D01*
X129383149Y-80606131D01*
X129318186Y-80478634D01*
X129293077Y-80429354D01*
X129176456Y-80268839D01*
X129065298Y-80157681D01*
X129031813Y-80096358D01*
X129036797Y-80026666D01*
X129065298Y-79982319D01*
X129076827Y-79970790D01*
X129176456Y-79871161D01*
X129293077Y-79710646D01*
X129383151Y-79533864D01*
X129444463Y-79345168D01*
X129461392Y-79238278D01*
X129475500Y-79149209D01*
X129475500Y-78950790D01*
X129453121Y-78809500D01*
X129444463Y-78754832D01*
X129383151Y-78566136D01*
X129383149Y-78566133D01*
X129383149Y-78566131D01*
X129324574Y-78451171D01*
X129293077Y-78389354D01*
X129176456Y-78228839D01*
X129065298Y-78117681D01*
X129031813Y-78056358D01*
X129036797Y-77986666D01*
X129065298Y-77942319D01*
X129100199Y-77907418D01*
X129176456Y-77831161D01*
X129293077Y-77670646D01*
X129383151Y-77493864D01*
X129444463Y-77305168D01*
X129469679Y-77145958D01*
X129475500Y-77109209D01*
X129475500Y-76910790D01*
X129457615Y-76797870D01*
X129444463Y-76714832D01*
X129383151Y-76526136D01*
X129383149Y-76526133D01*
X129383149Y-76526131D01*
X129350880Y-76462800D01*
X129293077Y-76349354D01*
X129176456Y-76188839D01*
X129036161Y-76048544D01*
X128875646Y-75931923D01*
X128818922Y-75903021D01*
X128698868Y-75841850D01*
X128653596Y-75827140D01*
X128510168Y-75780537D01*
X128510162Y-75780536D01*
X128314209Y-75749500D01*
X128314204Y-75749500D01*
X128115796Y-75749500D01*
X128115791Y-75749500D01*
X127919837Y-75780536D01*
X127919835Y-75780536D01*
X127919832Y-75780537D01*
X127825484Y-75811193D01*
X127731131Y-75841850D01*
X127554352Y-75931924D01*
X127554349Y-75931926D01*
X127468255Y-75994477D01*
X127393839Y-76048544D01*
X127393837Y-76048546D01*
X127393836Y-76048546D01*
X127253545Y-76188837D01*
X127159817Y-76317842D01*
X127104486Y-76360507D01*
X127034873Y-76366486D01*
X126973078Y-76333880D01*
X126938721Y-76273041D01*
X126935499Y-76244961D01*
X126935499Y-75182128D01*
X126929091Y-75122517D01*
X126878796Y-74987669D01*
X126878795Y-74987668D01*
X126878793Y-74987664D01*
X126792547Y-74872455D01*
X126792544Y-74872452D01*
X126677335Y-74786206D01*
X126677328Y-74786202D01*
X126542482Y-74735908D01*
X126542483Y-74735908D01*
X126482883Y-74729501D01*
X126482881Y-74729500D01*
X126482873Y-74729500D01*
X126482865Y-74729500D01*
X126399500Y-74729500D01*
X126332461Y-74709815D01*
X126286706Y-74657011D01*
X126275500Y-74605500D01*
X126275500Y-72429778D01*
X129114500Y-72429778D01*
X129114500Y-72650221D01*
X129148985Y-72867952D01*
X129217103Y-73077603D01*
X129217104Y-73077606D01*
X129317187Y-73274025D01*
X129446752Y-73452358D01*
X129446756Y-73452363D01*
X129602636Y-73608243D01*
X129602641Y-73608247D01*
X129758192Y-73721260D01*
X129780978Y-73737815D01*
X129909375Y-73803237D01*
X129977393Y-73837895D01*
X129977396Y-73837896D01*
X130082221Y-73871955D01*
X130187049Y-73906015D01*
X130404778Y-73940500D01*
X130404779Y-73940500D01*
X130625221Y-73940500D01*
X130625222Y-73940500D01*
X130842951Y-73906015D01*
X131052606Y-73837895D01*
X131249022Y-73737815D01*
X131427365Y-73608242D01*
X131583242Y-73452365D01*
X131712815Y-73274022D01*
X131812895Y-73077606D01*
X131881015Y-72867951D01*
X131915500Y-72650222D01*
X131915500Y-72429778D01*
X131881015Y-72212049D01*
X131812895Y-72002394D01*
X131812895Y-72002393D01*
X131778237Y-71934375D01*
X131712815Y-71805978D01*
X131617867Y-71675292D01*
X131583247Y-71627641D01*
X131583243Y-71627636D01*
X131427363Y-71471756D01*
X131427358Y-71471752D01*
X131249025Y-71342187D01*
X131249024Y-71342186D01*
X131249022Y-71342185D01*
X131186096Y-71310122D01*
X131052606Y-71242104D01*
X131052603Y-71242103D01*
X130842952Y-71173985D01*
X130693644Y-71150337D01*
X130625222Y-71139500D01*
X130404778Y-71139500D01*
X130336356Y-71150337D01*
X130187047Y-71173985D01*
X129977396Y-71242103D01*
X129977393Y-71242104D01*
X129780974Y-71342187D01*
X129602641Y-71471752D01*
X129602636Y-71471756D01*
X129446756Y-71627636D01*
X129446752Y-71627641D01*
X129317187Y-71805974D01*
X129217104Y-72002393D01*
X129217103Y-72002396D01*
X129148985Y-72212047D01*
X129114500Y-72429778D01*
X126275500Y-72429778D01*
X126275500Y-72404060D01*
X126275501Y-72404047D01*
X126275501Y-72235944D01*
X126234576Y-72083214D01*
X126234573Y-72083209D01*
X126155524Y-71946290D01*
X126155518Y-71946282D01*
X125359573Y-71150337D01*
X125326088Y-71089014D01*
X125325637Y-71086847D01*
X125294738Y-70931510D01*
X125294737Y-70931503D01*
X125294735Y-70931498D01*
X125234397Y-70785827D01*
X125234390Y-70785814D01*
X125146789Y-70654711D01*
X125146786Y-70654707D01*
X125035292Y-70543213D01*
X125035288Y-70543210D01*
X124904185Y-70455609D01*
X124904172Y-70455602D01*
X124758501Y-70395264D01*
X124758489Y-70395261D01*
X124603845Y-70364500D01*
X124603842Y-70364500D01*
X124446158Y-70364500D01*
X124446155Y-70364500D01*
X124291510Y-70395261D01*
X124291498Y-70395264D01*
X124145827Y-70455602D01*
X124145814Y-70455609D01*
X124014711Y-70543210D01*
X124014707Y-70543213D01*
X123903213Y-70654707D01*
X123903210Y-70654711D01*
X123815609Y-70785814D01*
X123815602Y-70785827D01*
X123755264Y-70931498D01*
X123755261Y-70931510D01*
X123724500Y-71086153D01*
X117870000Y-71086153D01*
X117870000Y-63874038D01*
X131399500Y-63874038D01*
X131399500Y-64125961D01*
X131438910Y-64374785D01*
X131516760Y-64614383D01*
X131631132Y-64838848D01*
X131779201Y-65042649D01*
X131779205Y-65042654D01*
X131957345Y-65220794D01*
X131957350Y-65220798D01*
X132135117Y-65349952D01*
X132161155Y-65368870D01*
X132304184Y-65441747D01*
X132385616Y-65483239D01*
X132385618Y-65483239D01*
X132385621Y-65483241D01*
X132625215Y-65561090D01*
X132874038Y-65600500D01*
X132874039Y-65600500D01*
X133125961Y-65600500D01*
X133125962Y-65600500D01*
X133374785Y-65561090D01*
X133614379Y-65483241D01*
X133838845Y-65368870D01*
X134042656Y-65220793D01*
X134220793Y-65042656D01*
X134368870Y-64838845D01*
X134483241Y-64614379D01*
X134561090Y-64374785D01*
X134600500Y-64125962D01*
X134600500Y-63874038D01*
X134561090Y-63625215D01*
X134483241Y-63385621D01*
X134483239Y-63385618D01*
X134483239Y-63385616D01*
X134441747Y-63304184D01*
X134368870Y-63161155D01*
X134240268Y-62984149D01*
X134220798Y-62957350D01*
X134220794Y-62957345D01*
X134042654Y-62779205D01*
X134042649Y-62779201D01*
X133838848Y-62631132D01*
X133838847Y-62631131D01*
X133838845Y-62631130D01*
X133768747Y-62595413D01*
X133614383Y-62516760D01*
X133374785Y-62438910D01*
X133125962Y-62399500D01*
X132874038Y-62399500D01*
X132749626Y-62419205D01*
X132625214Y-62438910D01*
X132385616Y-62516760D01*
X132161151Y-62631132D01*
X131957350Y-62779201D01*
X131957345Y-62779205D01*
X131779205Y-62957345D01*
X131779201Y-62957350D01*
X131631132Y-63161151D01*
X131516760Y-63385616D01*
X131438910Y-63625214D01*
X131399500Y-63874038D01*
X117870000Y-63874038D01*
X117870000Y-60624500D01*
X117889685Y-60557461D01*
X117942489Y-60511706D01*
X117994000Y-60500500D01*
X132934108Y-60500500D01*
X132996949Y-60500500D01*
X133003032Y-60500648D01*
G37*
%TD.AperFunction*%
%TD*%
%TA.AperFunction,Conductor*%
%TO.N,GNDA*%
G36*
X113747499Y-60520185D02*
G01*
X113793254Y-60572989D01*
X113804460Y-60624463D01*
X113815491Y-97375466D01*
X113795828Y-97442508D01*
X113743037Y-97488279D01*
X113691492Y-97499500D01*
X88003051Y-97499500D01*
X87996968Y-97499351D01*
X87976900Y-97498365D01*
X87663071Y-97482947D01*
X87650962Y-97481754D01*
X87323305Y-97433151D01*
X87311369Y-97430777D01*
X86990055Y-97350292D01*
X86978411Y-97346759D01*
X86666540Y-97235170D01*
X86655301Y-97230515D01*
X86355844Y-97088883D01*
X86345121Y-97083150D01*
X86061011Y-96912862D01*
X86050893Y-96906102D01*
X85784829Y-96708775D01*
X85775423Y-96701055D01*
X85736475Y-96665755D01*
X85529986Y-96478604D01*
X85521395Y-96470013D01*
X85298944Y-96224576D01*
X85291224Y-96215170D01*
X85093897Y-95949106D01*
X85087137Y-95938988D01*
X84916844Y-95654871D01*
X84911120Y-95644163D01*
X84769479Y-95344688D01*
X84764829Y-95333459D01*
X84724518Y-95220798D01*
X84660778Y-95042656D01*
X84653240Y-95021588D01*
X84649707Y-95009944D01*
X84606849Y-94838845D01*
X84569219Y-94688617D01*
X84566848Y-94676694D01*
X84518245Y-94349037D01*
X84517052Y-94336927D01*
X84500649Y-94003032D01*
X84500500Y-93996948D01*
X84500500Y-93874038D01*
X86399500Y-93874038D01*
X86399500Y-94125961D01*
X86438910Y-94374785D01*
X86516760Y-94614383D01*
X86631132Y-94838848D01*
X86779201Y-95042649D01*
X86779205Y-95042654D01*
X86957345Y-95220794D01*
X86957350Y-95220798D01*
X87135117Y-95349952D01*
X87161155Y-95368870D01*
X87304184Y-95441747D01*
X87385616Y-95483239D01*
X87385618Y-95483239D01*
X87385621Y-95483241D01*
X87625215Y-95561090D01*
X87874038Y-95600500D01*
X87874039Y-95600500D01*
X88125961Y-95600500D01*
X88125962Y-95600500D01*
X88374785Y-95561090D01*
X88614379Y-95483241D01*
X88838845Y-95368870D01*
X89042656Y-95220793D01*
X89220793Y-95042656D01*
X89368870Y-94838845D01*
X89483241Y-94614379D01*
X89561090Y-94374785D01*
X89600500Y-94125962D01*
X89600500Y-93874038D01*
X89561090Y-93625215D01*
X89483241Y-93385621D01*
X89483239Y-93385618D01*
X89483239Y-93385616D01*
X89441747Y-93304184D01*
X89368870Y-93161155D01*
X89349952Y-93135117D01*
X89220798Y-92957350D01*
X89220794Y-92957345D01*
X89042654Y-92779205D01*
X89042649Y-92779201D01*
X88838848Y-92631132D01*
X88838847Y-92631131D01*
X88838845Y-92631130D01*
X88768747Y-92595413D01*
X88614383Y-92516760D01*
X88374785Y-92438910D01*
X88125962Y-92399500D01*
X87874038Y-92399500D01*
X87749626Y-92419205D01*
X87625214Y-92438910D01*
X87385616Y-92516760D01*
X87161151Y-92631132D01*
X86957350Y-92779201D01*
X86957345Y-92779205D01*
X86779205Y-92957345D01*
X86779201Y-92957350D01*
X86631132Y-93161151D01*
X86516760Y-93385616D01*
X86438910Y-93625214D01*
X86399500Y-93874038D01*
X84500500Y-93874038D01*
X84500500Y-84161153D01*
X101739500Y-84161153D01*
X101739500Y-84318846D01*
X101770261Y-84473489D01*
X101770264Y-84473501D01*
X101830602Y-84619172D01*
X101830609Y-84619185D01*
X101918210Y-84750288D01*
X101918213Y-84750292D01*
X102029707Y-84861786D01*
X102029711Y-84861789D01*
X102160814Y-84949390D01*
X102160827Y-84949397D01*
X102306498Y-85009735D01*
X102306503Y-85009737D01*
X102461153Y-85040499D01*
X102461156Y-85040500D01*
X102461158Y-85040500D01*
X102618844Y-85040500D01*
X102618845Y-85040499D01*
X102773497Y-85009737D01*
X102919179Y-84949394D01*
X103050289Y-84861789D01*
X103161789Y-84750289D01*
X103249394Y-84619179D01*
X103309737Y-84473497D01*
X103331619Y-84363491D01*
X103336231Y-84340308D01*
X103368616Y-84278397D01*
X103429332Y-84243823D01*
X103457848Y-84240500D01*
X107984033Y-84240500D01*
X108051072Y-84260185D01*
X108096827Y-84312989D01*
X108105650Y-84340308D01*
X108110261Y-84363491D01*
X108110264Y-84363501D01*
X108170602Y-84509172D01*
X108170609Y-84509185D01*
X108258210Y-84640288D01*
X108258213Y-84640292D01*
X108369707Y-84751786D01*
X108369711Y-84751789D01*
X108500814Y-84839390D01*
X108500827Y-84839397D01*
X108646498Y-84899735D01*
X108646503Y-84899737D01*
X108801153Y-84930499D01*
X108801156Y-84930500D01*
X108801158Y-84930500D01*
X108958844Y-84930500D01*
X108958845Y-84930499D01*
X109113497Y-84899737D01*
X109259179Y-84839394D01*
X109390289Y-84751789D01*
X109501789Y-84640289D01*
X109589394Y-84509179D01*
X109649737Y-84363497D01*
X109680500Y-84208842D01*
X109680500Y-84051158D01*
X109680500Y-84051155D01*
X109680499Y-84051153D01*
X109671619Y-84006510D01*
X109649737Y-83896503D01*
X109634954Y-83860814D01*
X109589397Y-83750827D01*
X109589390Y-83750814D01*
X109501789Y-83619711D01*
X109501786Y-83619707D01*
X109390292Y-83508213D01*
X109390288Y-83508210D01*
X109259185Y-83420609D01*
X109259172Y-83420602D01*
X109113501Y-83360264D01*
X109113491Y-83360261D01*
X108958151Y-83329362D01*
X108941394Y-83320596D01*
X108922916Y-83316577D01*
X108897879Y-83297833D01*
X108896241Y-83296977D01*
X108894662Y-83295426D01*
X108758717Y-83159481D01*
X108758716Y-83159480D01*
X108671904Y-83109360D01*
X108671904Y-83109359D01*
X108671900Y-83109358D01*
X108621785Y-83080423D01*
X108469057Y-83039499D01*
X108310943Y-83039499D01*
X108303347Y-83039499D01*
X108303331Y-83039500D01*
X103186670Y-83039500D01*
X103186654Y-83039499D01*
X103179058Y-83039499D01*
X103020943Y-83039499D01*
X102944579Y-83059961D01*
X102868214Y-83080423D01*
X102868209Y-83080426D01*
X102731290Y-83159475D01*
X102731286Y-83159478D01*
X102475404Y-83415359D01*
X102414081Y-83448843D01*
X102411915Y-83449294D01*
X102306508Y-83470261D01*
X102306498Y-83470264D01*
X102160827Y-83530602D01*
X102160814Y-83530609D01*
X102029711Y-83618210D01*
X102029707Y-83618213D01*
X101918213Y-83729707D01*
X101918210Y-83729711D01*
X101830609Y-83860814D01*
X101830602Y-83860827D01*
X101770264Y-84006498D01*
X101770261Y-84006510D01*
X101739500Y-84161153D01*
X84500500Y-84161153D01*
X84500500Y-64003051D01*
X84500649Y-63996967D01*
X84506688Y-63874038D01*
X86399500Y-63874038D01*
X86399500Y-64125961D01*
X86438910Y-64374785D01*
X86516760Y-64614383D01*
X86631132Y-64838848D01*
X86779201Y-65042649D01*
X86779205Y-65042654D01*
X86957345Y-65220794D01*
X86957350Y-65220798D01*
X87135117Y-65349952D01*
X87161155Y-65368870D01*
X87304184Y-65441747D01*
X87385616Y-65483239D01*
X87385618Y-65483239D01*
X87385621Y-65483241D01*
X87625215Y-65561090D01*
X87874038Y-65600500D01*
X87874039Y-65600500D01*
X88125961Y-65600500D01*
X88125962Y-65600500D01*
X88374785Y-65561090D01*
X88614379Y-65483241D01*
X88838845Y-65368870D01*
X89042656Y-65220793D01*
X89220793Y-65042656D01*
X89368870Y-64838845D01*
X89483241Y-64614379D01*
X89561090Y-64374785D01*
X89600500Y-64125962D01*
X89600500Y-63874038D01*
X89561090Y-63625215D01*
X89483241Y-63385621D01*
X89483239Y-63385618D01*
X89483239Y-63385616D01*
X89441747Y-63304184D01*
X89368870Y-63161155D01*
X89240268Y-62984149D01*
X89220798Y-62957350D01*
X89220794Y-62957345D01*
X89042654Y-62779205D01*
X89042649Y-62779201D01*
X88838848Y-62631132D01*
X88838847Y-62631131D01*
X88838845Y-62631130D01*
X88768747Y-62595413D01*
X88614383Y-62516760D01*
X88374785Y-62438910D01*
X88125962Y-62399500D01*
X87874038Y-62399500D01*
X87749626Y-62419205D01*
X87625214Y-62438910D01*
X87385616Y-62516760D01*
X87161151Y-62631132D01*
X86957350Y-62779201D01*
X86957345Y-62779205D01*
X86779205Y-62957345D01*
X86779201Y-62957350D01*
X86631132Y-63161151D01*
X86516760Y-63385616D01*
X86438910Y-63625214D01*
X86399500Y-63874038D01*
X84506688Y-63874038D01*
X84507226Y-63863082D01*
X84517052Y-63663072D01*
X84518245Y-63650962D01*
X84522064Y-63625214D01*
X84566849Y-63323296D01*
X84569218Y-63311385D01*
X84649710Y-62990043D01*
X84653240Y-62978411D01*
X84660778Y-62957344D01*
X84764835Y-62666525D01*
X84769476Y-62655318D01*
X84911124Y-62355828D01*
X84916840Y-62345136D01*
X85087145Y-62060998D01*
X85093888Y-62050905D01*
X85291232Y-61784818D01*
X85298935Y-61775433D01*
X85521405Y-61529975D01*
X85529975Y-61521405D01*
X85775433Y-61298935D01*
X85784818Y-61291232D01*
X86050905Y-61093888D01*
X86060998Y-61087145D01*
X86345136Y-60916840D01*
X86355828Y-60911124D01*
X86655318Y-60769476D01*
X86666525Y-60764835D01*
X86978412Y-60653239D01*
X86990043Y-60649710D01*
X87311385Y-60569218D01*
X87323296Y-60566849D01*
X87650962Y-60518244D01*
X87663068Y-60517052D01*
X87996967Y-60500648D01*
X88003051Y-60500500D01*
X113680460Y-60500500D01*
X113747499Y-60520185D01*
G37*
%TD.AperFunction*%
%TD*%
M02*
