%TF.GenerationSoftware,KiCad,Pcbnew,10.0.1*%
%TF.CreationDate,2026-06-02T22:20:00+02:00*%
%TF.ProjectId,EnergeyMeterP1,456e6572-6765-4794-9d65-74657250312e,rev?*%
%TF.SameCoordinates,Original*%
%TF.FileFunction,Copper,L1,Top*%
%TF.FilePolarity,Positive*%
%FSLAX46Y46*%
G04 Gerber Fmt 4.6, Leading zero omitted, Abs format (unit mm)*
G04 Created by KiCad (PCBNEW 10.0.1) date 2026-06-02 22:20:00*
%MOMM*%
%LPD*%
G01*
G04 APERTURE LIST*
G04 Aperture macros list*
%AMRoundRect*
0 Rectangle with rounded corners*
0 $1 Rounding radius*
0 $2 $3 $4 $5 $6 $7 $8 $9 X,Y pos of 4 corners*
0 Add a 4 corners polygon primitive as box body*
4,1,4,$2,$3,$4,$5,$6,$7,$8,$9,$2,$3,0*
0 Add four circle primitives for the rounded corners*
1,1,$1+$1,$2,$3*
1,1,$1+$1,$4,$5*
1,1,$1+$1,$6,$7*
1,1,$1+$1,$8,$9*
0 Add four rect primitives between the rounded corners*
20,1,$1+$1,$2,$3,$4,$5,0*
20,1,$1+$1,$4,$5,$6,$7,0*
20,1,$1+$1,$6,$7,$8,$9,0*
20,1,$1+$1,$8,$9,$2,$3,0*%
G04 Aperture macros list end*
%TA.AperFunction,SMDPad,CuDef*%
%ADD10RoundRect,0.250000X0.262500X0.450000X-0.262500X0.450000X-0.262500X-0.450000X0.262500X-0.450000X0*%
%TD*%
%TA.AperFunction,SMDPad,CuDef*%
%ADD11RoundRect,0.250000X0.550000X0.550000X-0.550000X0.550000X-0.550000X-0.550000X0.550000X-0.550000X0*%
%TD*%
%TA.AperFunction,SMDPad,CuDef*%
%ADD12RoundRect,0.250000X-0.550000X-0.550000X0.550000X-0.550000X0.550000X0.550000X-0.550000X0.550000X0*%
%TD*%
%TA.AperFunction,ComponentPad*%
%ADD13R,1.520000X1.520000*%
%TD*%
%TA.AperFunction,ComponentPad*%
%ADD14C,1.520000*%
%TD*%
%TA.AperFunction,SMDPad,CuDef*%
%ADD15R,1.524000X3.025000*%
%TD*%
%TA.AperFunction,SMDPad,CuDef*%
%ADD16RoundRect,0.250000X-0.262500X-0.450000X0.262500X-0.450000X0.262500X0.450000X-0.262500X0.450000X0*%
%TD*%
%TA.AperFunction,ViaPad*%
%ADD17C,0.600000*%
%TD*%
%TA.AperFunction,Conductor*%
%ADD18C,0.200000*%
%TD*%
%TA.AperFunction,Conductor*%
%ADD19C,1.000000*%
%TD*%
G04 APERTURE END LIST*
D10*
%TO.P,R2,1*%
%TO.N,Net-(R2-Pad1)*%
X112040000Y-66890000D03*
%TO.P,R2,2*%
%TO.N,/ENABLE*%
X110215000Y-66890000D03*
%TD*%
%TO.P,R3,1*%
%TO.N,/M_TX*%
X125732500Y-88280000D03*
%TO.P,R3,2*%
%TO.N,+5VB*%
X123907500Y-88280000D03*
%TD*%
D11*
%TO.P,U2,1*%
%TO.N,Net-(R1-Pad1)*%
X119702857Y-87080000D03*
%TO.P,U2,2*%
%TO.N,DATA_GND*%
X119702857Y-84540000D03*
%TO.P,U2,3*%
%TO.N,unconnected-(U2-Pad3)*%
X119702857Y-82000000D03*
%TO.P,U2,4*%
%TO.N,GNDA*%
X112082857Y-82000000D03*
%TO.P,U2,5*%
%TO.N,/RX*%
X112082857Y-84540000D03*
%TO.P,U2,6*%
%TO.N,+3.3V*%
X112082857Y-87080000D03*
%TD*%
D12*
%TO.P,U3,1*%
%TO.N,Net-(R2-Pad1)*%
X112082857Y-70852500D03*
%TO.P,U3,2*%
%TO.N,GNDA*%
X112082857Y-73392500D03*
%TO.P,U3,3*%
%TO.N,unconnected-(U3-Pad3)*%
X112082857Y-75932500D03*
%TO.P,U3,4*%
%TO.N,DATA_GND*%
X119702857Y-75932500D03*
%TO.P,U3,5*%
%TO.N,/M_ENABLE*%
X119702857Y-73392500D03*
%TO.P,U3,6*%
%TO.N,+5VB*%
X119702857Y-70852500D03*
%TD*%
D13*
%TO.P,J1,1*%
%TO.N,+5VB*%
X125675000Y-75990000D03*
D14*
%TO.P,J1,2*%
%TO.N,/M_ENABLE*%
X128215000Y-77010000D03*
%TO.P,J1,3*%
%TO.N,DATA_GND*%
X125675000Y-78030000D03*
%TO.P,J1,4*%
%TO.N,unconnected-(J1-Pad4)*%
X128215000Y-79050000D03*
%TO.P,J1,5*%
%TO.N,/M_TX*%
X125675000Y-80070000D03*
%TO.P,J1,6*%
%TO.N,unconnected-(J1-Pad6)*%
X128215000Y-81090000D03*
%TD*%
D15*
%TO.P,U4,0,GPIO0_0*%
%TO.N,unconnected-(U4-GPIO0-Pad0)*%
X104755000Y-71022500D03*
%TO.P,U4,1,GPIO1_1*%
%TO.N,unconnected-(U4-GPIO1-Pad1)*%
X102215000Y-71022500D03*
%TO.P,U4,2,GPIO2_2*%
%TO.N,/ENABLE*%
X99675000Y-71022500D03*
%TO.P,U4,3,GPIO3_3*%
%TO.N,unconnected-(U4-GPIO3-Pad3)*%
X97135000Y-71022500D03*
%TO.P,U4,3.3,3V3_3.3*%
%TO.N,+3.3V*%
X92055000Y-71022500D03*
%TO.P,U4,4,GPIO4_4*%
%TO.N,unconnected-(U4-GPIO4-Pad4)*%
X94595000Y-71022500D03*
%TO.P,U4,5,GPIO5_5*%
%TO.N,unconnected-(U4-GPIO5-Pad5)*%
X86975000Y-86992500D03*
%TO.P,U4,5V,5V_5V*%
%TO.N,unconnected-(U4-Pad5V)*%
X86975000Y-71022500D03*
%TO.P,U4,6,GPIO6_6*%
%TO.N,unconnected-(U4-GPIO6-Pad6)*%
X89515000Y-86992500D03*
%TO.P,U4,7,GPIO7_7*%
%TO.N,unconnected-(U4-GPIO7-Pad7)*%
X92055000Y-86992500D03*
%TO.P,U4,8,GPIO8_8*%
%TO.N,unconnected-(U4-GPIO8-Pad8)*%
X94595000Y-86992500D03*
%TO.P,U4,9,GPIO9_9*%
%TO.N,unconnected-(U4-GPIO9-Pad9)*%
X97135000Y-86992500D03*
%TO.P,U4,10,GPIO10_10*%
%TO.N,unconnected-(U4-GPIO10-Pad10)*%
X99675000Y-86992500D03*
%TO.P,U4,20,GPIO20_20*%
%TO.N,/RX*%
X102215000Y-86992500D03*
%TO.P,U4,21,GPIO21_21*%
%TO.N,unconnected-(U4-GPIO21-Pad21)*%
X104755000Y-86992500D03*
%TO.P,U4,G,GND_G*%
%TO.N,GNDA*%
X89515000Y-71022500D03*
%TD*%
D16*
%TO.P,R1,1*%
%TO.N,Net-(R1-Pad1)*%
X123907500Y-91590000D03*
%TO.P,R1,2*%
%TO.N,/M_TX*%
X125732500Y-91590000D03*
%TD*%
D17*
%TO.N,+5VB*%
X124525000Y-71165000D03*
%TO.N,DATA_GND*%
X120890000Y-79380000D03*
X122240000Y-72080000D03*
X124010000Y-82110000D03*
X123890000Y-85570000D03*
X119610000Y-78100000D03*
X127140000Y-71790000D03*
X127280000Y-85470000D03*
X121980000Y-69660000D03*
X127180000Y-80050000D03*
X126720000Y-79020000D03*
X124550000Y-74340000D03*
X123980000Y-83530000D03*
X127030000Y-78000000D03*
X127370000Y-83140000D03*
X122950000Y-89990000D03*
X126940000Y-74380000D03*
X122120000Y-75360000D03*
%TO.N,GNDA*%
X110250000Y-85380000D03*
X106170000Y-68040000D03*
X97160000Y-68240000D03*
X97210000Y-84340000D03*
X97190000Y-73860000D03*
X106270000Y-82520000D03*
X106150000Y-65810000D03*
X97160000Y-89450000D03*
X106260000Y-84720000D03*
%TO.N,/RX*%
X108880000Y-84130000D03*
X102540000Y-84240000D03*
%TD*%
%TO.N,Net-(R2-Pad1)*%
D18*
X112040000Y-70809643D02*
X112082857Y-70852500D01*
X112040000Y-66890000D02*
X112040000Y-70809643D01*
%TO.N,/ENABLE*%
X99700000Y-68890000D02*
X101700000Y-66890000D01*
X110215000Y-66890000D02*
X101700000Y-66890000D01*
X99700000Y-71015000D02*
X99700000Y-68890000D01*
%TO.N,/M_TX*%
X125732500Y-80127500D02*
X125732500Y-88280000D01*
X125675000Y-80070000D02*
X125732500Y-80127500D01*
X125732500Y-91590000D02*
X125732500Y-88280000D01*
%TO.N,+5VB*%
X125675000Y-75990000D02*
X123860000Y-75990000D01*
X124212500Y-70852500D02*
X124525000Y-71165000D01*
X122110000Y-77740000D02*
X122110000Y-87800000D01*
X123840000Y-88212500D02*
X123907500Y-88280000D01*
X122110000Y-87800000D02*
X122590000Y-88280000D01*
X119702857Y-70852500D02*
X124212500Y-70852500D01*
X123907500Y-88280000D02*
X122590000Y-88280000D01*
X123860000Y-75990000D02*
X122110000Y-77740000D01*
%TO.N,Net-(R1-Pad1)*%
X120792857Y-87080000D02*
X121702857Y-87990000D01*
X119702857Y-87080000D02*
X120792857Y-87080000D01*
X122450000Y-91590000D02*
X121702857Y-90842857D01*
X121702857Y-87990000D02*
X121702857Y-90842857D01*
X123907500Y-91590000D02*
X122450000Y-91590000D01*
%TO.N,DATA_GND*%
X126720000Y-79020000D02*
X126720000Y-79590000D01*
X125910000Y-78030000D02*
X126920000Y-77020000D01*
X126720000Y-79590000D02*
X127180000Y-80050000D01*
X127150000Y-75960000D02*
X127150000Y-75310000D01*
X126920000Y-76190000D02*
X127150000Y-75960000D01*
X126640000Y-78940000D02*
X126720000Y-79020000D01*
X126920000Y-77020000D02*
X126920000Y-76190000D01*
D19*
X125675000Y-78030000D02*
X123940000Y-78030000D01*
X127030000Y-78000000D02*
X125705000Y-78000000D01*
D18*
X127030000Y-78000000D02*
X126640000Y-78390000D01*
D19*
X126640000Y-78390000D02*
X126640000Y-78940000D01*
D18*
X123940000Y-78030000D02*
X123930000Y-78020000D01*
X125705000Y-78000000D02*
X125675000Y-78030000D01*
X125675000Y-78030000D02*
X125910000Y-78030000D01*
%TO.N,/RX*%
X109340000Y-84490000D02*
X111115714Y-84490000D01*
X102540000Y-84240000D02*
X102240000Y-84540000D01*
X108880000Y-84130000D02*
X108980000Y-84130000D01*
X108980000Y-84130000D02*
X109340000Y-84490000D01*
X111115714Y-84490000D02*
X112082857Y-84540000D01*
X102240000Y-84540000D02*
X102240000Y-86985000D01*
%TO.N,+3.3V*%
X107260000Y-83650000D02*
X110690000Y-87080000D01*
X92080000Y-72770000D02*
X102960000Y-83650000D01*
X110690000Y-87080000D02*
X112082857Y-87080000D01*
X92080000Y-71015000D02*
X92080000Y-72770000D01*
X102960000Y-83650000D02*
X107260000Y-83650000D01*
%TO.N,/M_ENABLE*%
X119702857Y-73392500D02*
X127422500Y-73392500D01*
X127422500Y-73392500D02*
X128215000Y-74185000D01*
X128215000Y-74185000D02*
X128215000Y-77010000D01*
%TD*%
%TA.AperFunction,Conductor*%
%TO.N,DATA_GND*%
G36*
X122459443Y-88866701D02*
G01*
X122510943Y-88880501D01*
X122510945Y-88880501D01*
X122676654Y-88880501D01*
X122676670Y-88880500D01*
X122814699Y-88880500D01*
X122881738Y-88900185D01*
X122927493Y-88952989D01*
X122932403Y-88965492D01*
X122960186Y-89049334D01*
X123052288Y-89198656D01*
X123176344Y-89322712D01*
X123325666Y-89414814D01*
X123492203Y-89469999D01*
X123594991Y-89480500D01*
X124220008Y-89480499D01*
X124220016Y-89480498D01*
X124220019Y-89480498D01*
X124298245Y-89472507D01*
X124322797Y-89469999D01*
X124489334Y-89414814D01*
X124638656Y-89322712D01*
X124732319Y-89229049D01*
X124735097Y-89227531D01*
X124736750Y-89224831D01*
X124765563Y-89210896D01*
X124793642Y-89195564D01*
X124796799Y-89195789D01*
X124799650Y-89194411D01*
X124831416Y-89198265D01*
X124863334Y-89200548D01*
X124866812Y-89202560D01*
X124869011Y-89202827D01*
X124879108Y-89209673D01*
X124899116Y-89221249D01*
X124903579Y-89224947D01*
X125001344Y-89322712D01*
X125080457Y-89371509D01*
X125087116Y-89377026D01*
X125102008Y-89399111D01*
X125119821Y-89418915D01*
X125122087Y-89428890D01*
X125126178Y-89434956D01*
X125126469Y-89448170D01*
X125132000Y-89472507D01*
X125132000Y-90397491D01*
X125112315Y-90464530D01*
X125073098Y-90503029D01*
X125001344Y-90547287D01*
X125001343Y-90547288D01*
X124907681Y-90640951D01*
X124846358Y-90674436D01*
X124776666Y-90669452D01*
X124732319Y-90640951D01*
X124638657Y-90547289D01*
X124638656Y-90547288D01*
X124489334Y-90455186D01*
X124322797Y-90400001D01*
X124322795Y-90400000D01*
X124220010Y-90389500D01*
X123594998Y-90389500D01*
X123594980Y-90389501D01*
X123492203Y-90400000D01*
X123492200Y-90400001D01*
X123325668Y-90455185D01*
X123325663Y-90455187D01*
X123176342Y-90547289D01*
X123052289Y-90671342D01*
X122960187Y-90820663D01*
X122960185Y-90820668D01*
X122932405Y-90904504D01*
X122918534Y-90924536D01*
X122908412Y-90946703D01*
X122898999Y-90952751D01*
X122892632Y-90961949D01*
X122870133Y-90971302D01*
X122849634Y-90984477D01*
X122832532Y-90986935D01*
X122828116Y-90988772D01*
X122814699Y-90989500D01*
X122750098Y-90989500D01*
X122683059Y-90969815D01*
X122662417Y-90953181D01*
X122339676Y-90630440D01*
X122306191Y-90569117D01*
X122303357Y-90542759D01*
X122303357Y-88986478D01*
X122323042Y-88919439D01*
X122375846Y-88873684D01*
X122445004Y-88863740D01*
X122459443Y-88866701D01*
G37*
%TD.AperFunction*%
%TA.AperFunction,Conductor*%
G36*
X124299186Y-76593050D02*
G01*
X124308148Y-76591762D01*
X124332188Y-76602740D01*
X124357540Y-76610185D01*
X124363467Y-76617025D01*
X124371704Y-76620787D01*
X124385993Y-76643021D01*
X124403295Y-76662989D01*
X124405582Y-76673503D01*
X124409478Y-76679565D01*
X124414501Y-76714500D01*
X124414501Y-76797876D01*
X124420908Y-76857483D01*
X124471202Y-76992328D01*
X124471206Y-76992335D01*
X124557452Y-77107544D01*
X124557455Y-77107547D01*
X124608765Y-77145958D01*
X124650636Y-77201891D01*
X124655620Y-77271583D01*
X124634773Y-77318108D01*
X124597353Y-77369613D01*
X124507311Y-77546327D01*
X124507310Y-77546330D01*
X124446026Y-77734947D01*
X124415000Y-77930836D01*
X124415000Y-78129163D01*
X124446026Y-78325052D01*
X124507310Y-78513669D01*
X124507311Y-78513672D01*
X124597350Y-78690380D01*
X124624161Y-78727283D01*
X125232861Y-78118582D01*
X125255667Y-78203694D01*
X125314910Y-78306306D01*
X125398694Y-78390090D01*
X125501306Y-78449333D01*
X125586414Y-78472137D01*
X125134823Y-78923728D01*
X125103438Y-78946531D01*
X125014356Y-78991921D01*
X124934096Y-79050233D01*
X124853839Y-79108544D01*
X124853837Y-79108546D01*
X124853836Y-79108546D01*
X124713546Y-79248836D01*
X124713546Y-79248837D01*
X124713544Y-79248839D01*
X124659477Y-79323255D01*
X124596926Y-79409349D01*
X124596924Y-79409352D01*
X124506850Y-79586131D01*
X124476193Y-79680484D01*
X124445537Y-79774832D01*
X124445536Y-79774835D01*
X124445536Y-79774837D01*
X124414500Y-79970790D01*
X124414500Y-80169209D01*
X124430280Y-80268837D01*
X124445537Y-80365168D01*
X124482405Y-80478634D01*
X124506850Y-80553868D01*
X124565994Y-80669943D01*
X124596923Y-80730646D01*
X124713544Y-80891161D01*
X124853839Y-81031456D01*
X125014354Y-81148077D01*
X125064294Y-81173522D01*
X125115090Y-81221496D01*
X125132000Y-81284007D01*
X125132000Y-87087491D01*
X125131599Y-87088853D01*
X125131970Y-87090225D01*
X125121783Y-87122284D01*
X125112315Y-87154530D01*
X125111103Y-87155897D01*
X125110812Y-87156814D01*
X125107323Y-87160163D01*
X125087116Y-87182972D01*
X125080451Y-87188494D01*
X125001344Y-87237288D01*
X124903579Y-87335052D01*
X124899116Y-87338751D01*
X124872134Y-87350360D01*
X124846358Y-87364436D01*
X124840411Y-87364010D01*
X124834936Y-87366367D01*
X124805964Y-87361547D01*
X124776666Y-87359452D01*
X124770831Y-87355702D01*
X124766014Y-87354901D01*
X124757294Y-87347002D01*
X124732319Y-87330951D01*
X124638657Y-87237289D01*
X124638656Y-87237288D01*
X124508000Y-87156699D01*
X124489336Y-87145187D01*
X124489331Y-87145185D01*
X124420220Y-87122284D01*
X124322797Y-87090001D01*
X124322795Y-87090000D01*
X124220010Y-87079500D01*
X123594998Y-87079500D01*
X123594980Y-87079501D01*
X123492203Y-87090000D01*
X123492200Y-87090001D01*
X123325668Y-87145185D01*
X123325663Y-87145187D01*
X123176342Y-87237289D01*
X123052289Y-87361342D01*
X122960187Y-87510663D01*
X122960185Y-87510668D01*
X122952206Y-87534749D01*
X122912433Y-87592194D01*
X122847917Y-87619017D01*
X122779141Y-87606702D01*
X122727942Y-87559159D01*
X122710500Y-87495745D01*
X122710500Y-78040097D01*
X122730185Y-77973058D01*
X122746819Y-77952416D01*
X124072417Y-76626819D01*
X124133740Y-76593334D01*
X124160098Y-76590500D01*
X124290501Y-76590500D01*
X124299186Y-76593050D01*
G37*
%TD.AperFunction*%
%TA.AperFunction,Conductor*%
G36*
X127095266Y-79667771D02*
G01*
X127133978Y-79706762D01*
X127134059Y-79706704D01*
X127134435Y-79707222D01*
X127135451Y-79708245D01*
X127136918Y-79710639D01*
X127136922Y-79710645D01*
X127136923Y-79710646D01*
X127253544Y-79871161D01*
X127253546Y-79871163D01*
X127364702Y-79982319D01*
X127398187Y-80043642D01*
X127393203Y-80113334D01*
X127364702Y-80157681D01*
X127253546Y-80268836D01*
X127253546Y-80268837D01*
X127253544Y-80268839D01*
X127209890Y-80328923D01*
X127136917Y-80429361D01*
X127135447Y-80431761D01*
X127134651Y-80432480D01*
X127134059Y-80433296D01*
X127133887Y-80433171D01*
X127083633Y-80478634D01*
X127014702Y-80490053D01*
X126950541Y-80462392D01*
X126911519Y-80404435D01*
X126907250Y-80347570D01*
X126919720Y-80268836D01*
X126935500Y-80169209D01*
X126935500Y-79970790D01*
X126907250Y-79792431D01*
X126916204Y-79723138D01*
X126961200Y-79669686D01*
X127027952Y-79649046D01*
X127095266Y-79667771D01*
G37*
%TD.AperFunction*%
%TA.AperFunction,Conductor*%
G36*
X126725837Y-78727284D02*
G01*
X126725837Y-78727283D01*
X126752640Y-78690393D01*
X126754747Y-78686956D01*
X126806555Y-78640076D01*
X126875483Y-78628647D01*
X126939649Y-78656298D01*
X126978679Y-78714250D01*
X126982954Y-78771133D01*
X126954500Y-78950789D01*
X126954500Y-79149209D01*
X126982749Y-79327568D01*
X126973794Y-79396862D01*
X126928798Y-79450314D01*
X126862047Y-79470953D01*
X126794733Y-79452228D01*
X126756021Y-79413237D01*
X126755941Y-79413296D01*
X126755561Y-79412774D01*
X126754545Y-79411750D01*
X126753076Y-79409353D01*
X126636456Y-79248839D01*
X126496161Y-79108544D01*
X126335646Y-78991923D01*
X126335642Y-78991921D01*
X126246561Y-78946532D01*
X126215175Y-78923728D01*
X125763585Y-78472137D01*
X125848694Y-78449333D01*
X125951306Y-78390090D01*
X126035090Y-78306306D01*
X126094333Y-78203694D01*
X126117138Y-78118585D01*
X126725837Y-78727284D01*
G37*
%TD.AperFunction*%
%TA.AperFunction,Conductor*%
G36*
X127094582Y-77626654D02*
G01*
X127134770Y-77667133D01*
X127136919Y-77670641D01*
X127136926Y-77670650D01*
X127253544Y-77831161D01*
X127253546Y-77831163D01*
X127364702Y-77942319D01*
X127398187Y-78003642D01*
X127393203Y-78073334D01*
X127364702Y-78117681D01*
X127253546Y-78228836D01*
X127253546Y-78228837D01*
X127253544Y-78228839D01*
X127209652Y-78289251D01*
X127136925Y-78389350D01*
X127134767Y-78392873D01*
X127082955Y-78439748D01*
X127014025Y-78451171D01*
X126949862Y-78423514D01*
X126910837Y-78365558D01*
X126906566Y-78308685D01*
X126935000Y-78129162D01*
X126935000Y-77930836D01*
X126906566Y-77751314D01*
X126915520Y-77682021D01*
X126960517Y-77628569D01*
X127027268Y-77607929D01*
X127094582Y-77626654D01*
G37*
%TD.AperFunction*%
%TA.AperFunction,Conductor*%
G36*
X133003032Y-60500648D02*
G01*
X133336929Y-60517052D01*
X133349037Y-60518245D01*
X133452146Y-60533539D01*
X133676699Y-60566849D01*
X133688617Y-60569219D01*
X134009951Y-60649709D01*
X134021588Y-60653240D01*
X134092806Y-60678722D01*
X134333467Y-60764832D01*
X134344688Y-60769479D01*
X134644163Y-60911120D01*
X134654871Y-60916844D01*
X134938988Y-61087137D01*
X134949106Y-61093897D01*
X135215170Y-61291224D01*
X135224576Y-61298944D01*
X135470013Y-61521395D01*
X135478604Y-61529986D01*
X135665755Y-61736475D01*
X135701055Y-61775423D01*
X135708775Y-61784829D01*
X135906102Y-62050893D01*
X135912862Y-62061011D01*
X136041776Y-62276092D01*
X136083148Y-62345116D01*
X136088885Y-62355848D01*
X136230514Y-62655297D01*
X136235170Y-62666540D01*
X136346759Y-62978411D01*
X136350292Y-62990055D01*
X136430777Y-63311369D01*
X136433151Y-63323305D01*
X136481754Y-63650962D01*
X136482947Y-63663071D01*
X136499351Y-63996966D01*
X136499500Y-64003051D01*
X136499500Y-93996948D01*
X136499351Y-94003033D01*
X136482947Y-94336928D01*
X136481754Y-94349037D01*
X136433151Y-94676694D01*
X136430777Y-94688630D01*
X136350292Y-95009944D01*
X136346759Y-95021588D01*
X136235170Y-95333459D01*
X136230514Y-95344702D01*
X136088885Y-95644151D01*
X136083148Y-95654883D01*
X135912862Y-95938988D01*
X135906102Y-95949106D01*
X135708775Y-96215170D01*
X135701055Y-96224576D01*
X135478611Y-96470006D01*
X135470006Y-96478611D01*
X135224576Y-96701055D01*
X135215170Y-96708775D01*
X134949106Y-96906102D01*
X134938988Y-96912862D01*
X134654883Y-97083148D01*
X134644151Y-97088885D01*
X134344702Y-97230514D01*
X134333459Y-97235170D01*
X134021588Y-97346759D01*
X134009944Y-97350292D01*
X133688630Y-97430777D01*
X133676694Y-97433151D01*
X133349037Y-97481754D01*
X133336928Y-97482947D01*
X133021989Y-97498419D01*
X133003031Y-97499351D01*
X132996949Y-97499500D01*
X117994000Y-97499500D01*
X117926961Y-97479815D01*
X117881206Y-97427011D01*
X117870000Y-97375500D01*
X117870000Y-93874038D01*
X131399500Y-93874038D01*
X131399500Y-94125961D01*
X131438910Y-94374785D01*
X131516760Y-94614383D01*
X131631132Y-94838848D01*
X131779201Y-95042649D01*
X131779205Y-95042654D01*
X131957345Y-95220794D01*
X131957350Y-95220798D01*
X132135117Y-95349952D01*
X132161155Y-95368870D01*
X132304184Y-95441747D01*
X132385616Y-95483239D01*
X132385618Y-95483239D01*
X132385621Y-95483241D01*
X132625215Y-95561090D01*
X132874038Y-95600500D01*
X132874039Y-95600500D01*
X133125961Y-95600500D01*
X133125962Y-95600500D01*
X133374785Y-95561090D01*
X133614379Y-95483241D01*
X133838845Y-95368870D01*
X134042656Y-95220793D01*
X134220793Y-95042656D01*
X134368870Y-94838845D01*
X134483241Y-94614379D01*
X134561090Y-94374785D01*
X134600500Y-94125962D01*
X134600500Y-93874038D01*
X134561090Y-93625215D01*
X134483241Y-93385621D01*
X134483239Y-93385618D01*
X134483239Y-93385616D01*
X134441747Y-93304184D01*
X134368870Y-93161155D01*
X134349952Y-93135117D01*
X134220798Y-92957350D01*
X134220794Y-92957345D01*
X134042654Y-92779205D01*
X134042649Y-92779201D01*
X133838848Y-92631132D01*
X133838847Y-92631131D01*
X133838845Y-92631130D01*
X133768747Y-92595413D01*
X133614383Y-92516760D01*
X133374785Y-92438910D01*
X133125962Y-92399500D01*
X132874038Y-92399500D01*
X132771276Y-92415776D01*
X132625214Y-92438910D01*
X132385616Y-92516760D01*
X132161151Y-92631132D01*
X131957350Y-92779201D01*
X131957345Y-92779205D01*
X131779205Y-92957345D01*
X131779201Y-92957350D01*
X131631132Y-93161151D01*
X131516760Y-93385616D01*
X131438910Y-93625214D01*
X131399500Y-93874038D01*
X117870000Y-93874038D01*
X117870000Y-81399983D01*
X118402357Y-81399983D01*
X118402357Y-82600001D01*
X118402358Y-82600018D01*
X118412857Y-82702796D01*
X118412858Y-82702799D01*
X118468042Y-82869331D01*
X118468044Y-82869336D01*
X118560146Y-83018657D01*
X118684201Y-83142712D01*
X118719937Y-83164754D01*
X118766662Y-83216702D01*
X118777885Y-83285664D01*
X118750042Y-83349746D01*
X118719940Y-83375830D01*
X118684516Y-83397680D01*
X118684512Y-83397683D01*
X118560541Y-83521654D01*
X118468500Y-83670875D01*
X118468498Y-83670880D01*
X118413351Y-83837302D01*
X118413350Y-83837309D01*
X118402857Y-83940013D01*
X118402857Y-84290000D01*
X121002856Y-84290000D01*
X121002856Y-83940028D01*
X121002855Y-83940013D01*
X120992362Y-83837302D01*
X120937215Y-83670880D01*
X120937213Y-83670875D01*
X120845172Y-83521654D01*
X120721200Y-83397682D01*
X120685774Y-83375831D01*
X120639050Y-83323883D01*
X120627829Y-83254920D01*
X120655673Y-83190838D01*
X120685772Y-83164756D01*
X120721513Y-83142712D01*
X120845569Y-83018656D01*
X120937671Y-82869334D01*
X120992856Y-82702797D01*
X121003357Y-82600009D01*
X121003356Y-81399992D01*
X120992856Y-81297203D01*
X120937671Y-81130666D01*
X120845569Y-80981344D01*
X120721513Y-80857288D01*
X120572191Y-80765186D01*
X120405654Y-80710001D01*
X120405652Y-80710000D01*
X120302867Y-80699500D01*
X119102855Y-80699500D01*
X119102838Y-80699501D01*
X119000060Y-80710000D01*
X119000057Y-80710001D01*
X118833525Y-80765185D01*
X118833520Y-80765187D01*
X118684199Y-80857289D01*
X118560146Y-80981342D01*
X118468044Y-81130663D01*
X118468042Y-81130668D01*
X118462273Y-81148078D01*
X118412858Y-81297203D01*
X118412858Y-81297204D01*
X118412857Y-81297204D01*
X118402357Y-81399983D01*
X117870000Y-81399983D01*
X117870000Y-76532486D01*
X118402858Y-76532486D01*
X118413351Y-76635197D01*
X118468498Y-76801619D01*
X118468500Y-76801624D01*
X118560541Y-76950845D01*
X118684511Y-77074815D01*
X118833732Y-77166856D01*
X118833737Y-77166858D01*
X119000159Y-77222005D01*
X119000166Y-77222006D01*
X119102876Y-77232499D01*
X119452856Y-77232499D01*
X119952857Y-77232499D01*
X120302829Y-77232499D01*
X120302843Y-77232498D01*
X120405554Y-77222005D01*
X120571976Y-77166858D01*
X120571981Y-77166856D01*
X120721202Y-77074815D01*
X120845172Y-76950845D01*
X120937213Y-76801624D01*
X120937215Y-76801619D01*
X120992362Y-76635197D01*
X120992363Y-76635190D01*
X121002856Y-76532486D01*
X121002857Y-76532473D01*
X121002857Y-76182500D01*
X119952857Y-76182500D01*
X119952857Y-77232499D01*
X119452856Y-77232499D01*
X119452857Y-77232498D01*
X119452857Y-76182500D01*
X118402858Y-76182500D01*
X118402858Y-76532486D01*
X117870000Y-76532486D01*
X117870000Y-70252483D01*
X118402357Y-70252483D01*
X118402357Y-71452501D01*
X118402358Y-71452518D01*
X118412857Y-71555296D01*
X118412858Y-71555299D01*
X118436830Y-71627641D01*
X118468043Y-71721834D01*
X118508105Y-71786786D01*
X118560146Y-71871157D01*
X118684200Y-71995211D01*
X118684204Y-71995214D01*
X118719462Y-72016962D01*
X118766187Y-72068910D01*
X118777408Y-72137872D01*
X118749565Y-72201954D01*
X118719462Y-72228038D01*
X118684204Y-72249785D01*
X118684200Y-72249788D01*
X118560146Y-72373842D01*
X118468044Y-72523163D01*
X118468043Y-72523166D01*
X118412858Y-72689703D01*
X118412858Y-72689704D01*
X118412857Y-72689704D01*
X118402357Y-72792483D01*
X118402357Y-73992501D01*
X118402358Y-73992518D01*
X118412857Y-74095296D01*
X118412858Y-74095299D01*
X118468042Y-74261831D01*
X118468044Y-74261836D01*
X118560146Y-74411157D01*
X118684201Y-74535212D01*
X118719937Y-74557254D01*
X118766662Y-74609202D01*
X118777885Y-74678164D01*
X118750042Y-74742246D01*
X118719940Y-74768330D01*
X118684516Y-74790180D01*
X118684512Y-74790183D01*
X118560541Y-74914154D01*
X118468500Y-75063375D01*
X118468498Y-75063380D01*
X118413351Y-75229802D01*
X118413350Y-75229809D01*
X118402857Y-75332513D01*
X118402857Y-75682500D01*
X121002856Y-75682500D01*
X121002856Y-75332528D01*
X121002855Y-75332513D01*
X120992362Y-75229802D01*
X120937215Y-75063380D01*
X120937213Y-75063375D01*
X120845172Y-74914154D01*
X120721200Y-74790182D01*
X120685774Y-74768331D01*
X120639050Y-74716383D01*
X120627829Y-74647420D01*
X120655673Y-74583338D01*
X120685772Y-74557256D01*
X120721513Y-74535212D01*
X120845569Y-74411156D01*
X120937671Y-74261834D01*
X120992856Y-74095297D01*
X120992856Y-74095294D01*
X120992858Y-74095289D01*
X120993769Y-74091033D01*
X121027056Y-74029602D01*
X121088271Y-73995919D01*
X121115020Y-73993000D01*
X127122403Y-73993000D01*
X127189442Y-74012685D01*
X127210084Y-74029319D01*
X127578181Y-74397416D01*
X127611666Y-74458739D01*
X127614500Y-74485097D01*
X127614500Y-75825621D01*
X127594815Y-75892660D01*
X127558020Y-75928680D01*
X127558296Y-75929059D01*
X127555728Y-75930924D01*
X127555303Y-75931341D01*
X127554357Y-75931920D01*
X127458045Y-76001895D01*
X127393839Y-76048544D01*
X127393837Y-76048546D01*
X127393836Y-76048546D01*
X127253545Y-76188837D01*
X127159817Y-76317842D01*
X127104486Y-76360507D01*
X127034873Y-76366486D01*
X126973078Y-76333880D01*
X126938721Y-76273041D01*
X126935499Y-76244961D01*
X126935499Y-75182128D01*
X126929091Y-75122517D01*
X126907034Y-75063380D01*
X126878797Y-74987671D01*
X126878793Y-74987664D01*
X126792547Y-74872455D01*
X126792544Y-74872452D01*
X126677335Y-74786206D01*
X126677328Y-74786202D01*
X126542482Y-74735908D01*
X126542483Y-74735908D01*
X126482883Y-74729501D01*
X126482881Y-74729500D01*
X126482873Y-74729500D01*
X126482864Y-74729500D01*
X124867129Y-74729500D01*
X124867123Y-74729501D01*
X124807516Y-74735908D01*
X124672671Y-74786202D01*
X124672664Y-74786206D01*
X124557455Y-74872452D01*
X124557452Y-74872455D01*
X124471206Y-74987664D01*
X124471202Y-74987671D01*
X124420908Y-75122517D01*
X124414501Y-75182116D01*
X124414501Y-75182123D01*
X124414500Y-75182135D01*
X124414500Y-75265500D01*
X124394815Y-75332539D01*
X124342011Y-75378294D01*
X124290500Y-75389500D01*
X123946670Y-75389500D01*
X123946654Y-75389499D01*
X123939058Y-75389499D01*
X123780943Y-75389499D01*
X123704579Y-75409961D01*
X123628214Y-75430423D01*
X123628209Y-75430426D01*
X123491290Y-75509475D01*
X123491282Y-75509481D01*
X121629481Y-77371282D01*
X121629479Y-77371285D01*
X121579361Y-77458094D01*
X121579359Y-77458096D01*
X121550425Y-77508209D01*
X121550424Y-77508210D01*
X121550423Y-77508215D01*
X121509499Y-77660943D01*
X121509499Y-77660945D01*
X121509499Y-77829046D01*
X121509500Y-77829059D01*
X121509500Y-86648046D01*
X121503261Y-86669291D01*
X121501682Y-86691380D01*
X121493609Y-86702163D01*
X121489815Y-86715085D01*
X121473081Y-86729584D01*
X121459810Y-86747313D01*
X121447189Y-86752020D01*
X121437011Y-86760840D01*
X121415093Y-86763991D01*
X121394346Y-86771730D01*
X121381185Y-86768867D01*
X121367853Y-86770784D01*
X121347709Y-86761584D01*
X121326073Y-86756878D01*
X121308347Y-86743609D01*
X121304297Y-86741759D01*
X121297819Y-86735727D01*
X121280447Y-86718355D01*
X121280445Y-86718352D01*
X121161574Y-86599481D01*
X121161573Y-86599480D01*
X121074761Y-86549360D01*
X121074761Y-86549359D01*
X121074754Y-86549356D01*
X121061320Y-86541599D01*
X121013107Y-86491030D01*
X120999967Y-86446816D01*
X120992856Y-86377203D01*
X120992855Y-86377200D01*
X120937671Y-86210666D01*
X120845569Y-86061344D01*
X120721513Y-85937288D01*
X120685774Y-85915244D01*
X120639050Y-85863297D01*
X120627829Y-85794334D01*
X120655672Y-85730252D01*
X120685776Y-85704167D01*
X120721200Y-85682317D01*
X120845172Y-85558345D01*
X120937213Y-85409124D01*
X120937215Y-85409119D01*
X120992362Y-85242697D01*
X120992363Y-85242690D01*
X121002856Y-85139986D01*
X121002857Y-85139973D01*
X121002857Y-84790000D01*
X118402858Y-84790000D01*
X118402858Y-85139986D01*
X118413351Y-85242697D01*
X118468498Y-85409119D01*
X118468500Y-85409124D01*
X118560541Y-85558345D01*
X118684512Y-85682316D01*
X118684516Y-85682319D01*
X118719938Y-85704168D01*
X118766663Y-85756116D01*
X118777884Y-85825078D01*
X118750041Y-85889160D01*
X118719939Y-85915244D01*
X118684201Y-85937287D01*
X118560146Y-86061342D01*
X118468044Y-86210663D01*
X118468043Y-86210666D01*
X118412858Y-86377203D01*
X118412858Y-86377204D01*
X118412857Y-86377204D01*
X118402357Y-86479983D01*
X118402357Y-87680001D01*
X118402358Y-87680018D01*
X118412857Y-87782796D01*
X118412858Y-87782799D01*
X118468042Y-87949331D01*
X118468043Y-87949334D01*
X118560145Y-88098656D01*
X118684201Y-88222712D01*
X118833523Y-88314814D01*
X119000060Y-88369999D01*
X119102848Y-88380500D01*
X120302865Y-88380499D01*
X120405654Y-88369999D01*
X120572191Y-88314814D01*
X120721513Y-88222712D01*
X120816245Y-88127979D01*
X120824188Y-88123642D01*
X120829613Y-88116396D01*
X120854369Y-88107162D01*
X120877564Y-88094497D01*
X120886594Y-88095142D01*
X120895077Y-88091979D01*
X120920897Y-88097595D01*
X120947256Y-88099481D01*
X120956309Y-88105299D01*
X120963350Y-88106831D01*
X120991604Y-88127982D01*
X121066038Y-88202416D01*
X121099523Y-88263739D01*
X121102357Y-88290097D01*
X121102357Y-90756187D01*
X121102356Y-90756205D01*
X121102356Y-90921911D01*
X121102355Y-90921911D01*
X121143280Y-91074642D01*
X121163394Y-91109480D01*
X121163393Y-91109480D01*
X121163394Y-91109481D01*
X121222332Y-91211566D01*
X121222338Y-91211574D01*
X121341206Y-91330442D01*
X121341211Y-91330446D01*
X122081284Y-92070520D01*
X122081286Y-92070521D01*
X122081290Y-92070524D01*
X122115040Y-92090009D01*
X122218216Y-92149577D01*
X122370943Y-92190501D01*
X122370945Y-92190501D01*
X122536654Y-92190501D01*
X122536670Y-92190500D01*
X122814699Y-92190500D01*
X122881738Y-92210185D01*
X122927493Y-92262989D01*
X122932403Y-92275492D01*
X122960186Y-92359334D01*
X123052288Y-92508656D01*
X123176344Y-92632712D01*
X123325666Y-92724814D01*
X123492203Y-92779999D01*
X123594991Y-92790500D01*
X124220008Y-92790499D01*
X124220016Y-92790498D01*
X124220019Y-92790498D01*
X124276302Y-92784748D01*
X124322797Y-92779999D01*
X124489334Y-92724814D01*
X124638656Y-92632712D01*
X124732319Y-92539049D01*
X124793642Y-92505564D01*
X124863334Y-92510548D01*
X124907681Y-92539049D01*
X125001344Y-92632712D01*
X125150666Y-92724814D01*
X125317203Y-92779999D01*
X125419991Y-92790500D01*
X126045008Y-92790499D01*
X126045016Y-92790498D01*
X126045019Y-92790498D01*
X126101302Y-92784748D01*
X126147797Y-92779999D01*
X126314334Y-92724814D01*
X126463656Y-92632712D01*
X126587712Y-92508656D01*
X126679814Y-92359334D01*
X126734999Y-92192797D01*
X126745500Y-92090009D01*
X126745499Y-91089992D01*
X126734999Y-90987203D01*
X126679814Y-90820666D01*
X126587712Y-90671344D01*
X126463656Y-90547288D01*
X126463655Y-90547287D01*
X126391902Y-90503029D01*
X126345178Y-90451081D01*
X126333000Y-90397491D01*
X126333000Y-89472507D01*
X126352685Y-89405468D01*
X126391903Y-89366968D01*
X126463656Y-89322712D01*
X126587712Y-89198656D01*
X126679814Y-89049334D01*
X126734999Y-88882797D01*
X126745500Y-88780009D01*
X126745499Y-87779992D01*
X126734999Y-87677203D01*
X126679814Y-87510666D01*
X126587712Y-87361344D01*
X126463656Y-87237288D01*
X126463655Y-87237287D01*
X126391902Y-87193029D01*
X126345178Y-87141081D01*
X126333000Y-87087491D01*
X126333000Y-84429778D01*
X129114500Y-84429778D01*
X129114500Y-84650221D01*
X129148985Y-84867952D01*
X129217103Y-85077603D01*
X129217104Y-85077606D01*
X129285122Y-85211096D01*
X129301220Y-85242690D01*
X129317187Y-85274025D01*
X129446752Y-85452358D01*
X129446756Y-85452363D01*
X129602636Y-85608243D01*
X129602641Y-85608247D01*
X129758192Y-85721260D01*
X129780978Y-85737815D01*
X129862789Y-85779500D01*
X129977393Y-85837895D01*
X129977396Y-85837896D01*
X130082221Y-85871955D01*
X130187049Y-85906015D01*
X130404778Y-85940500D01*
X130404779Y-85940500D01*
X130625221Y-85940500D01*
X130625222Y-85940500D01*
X130842951Y-85906015D01*
X131052606Y-85837895D01*
X131249022Y-85737815D01*
X131427365Y-85608242D01*
X131583242Y-85452365D01*
X131712815Y-85274022D01*
X131812895Y-85077606D01*
X131881015Y-84867951D01*
X131915500Y-84650222D01*
X131915500Y-84429778D01*
X131881015Y-84212049D01*
X131812895Y-84002394D01*
X131812895Y-84002393D01*
X131778237Y-83934375D01*
X131712815Y-83805978D01*
X131696260Y-83783192D01*
X131583247Y-83627641D01*
X131583243Y-83627636D01*
X131427363Y-83471756D01*
X131427358Y-83471752D01*
X131249025Y-83342187D01*
X131249024Y-83342186D01*
X131249022Y-83342185D01*
X131186096Y-83310122D01*
X131052606Y-83242104D01*
X131052603Y-83242103D01*
X130842952Y-83173985D01*
X130734086Y-83156742D01*
X130625222Y-83139500D01*
X130404778Y-83139500D01*
X130332201Y-83150995D01*
X130187047Y-83173985D01*
X129977396Y-83242103D01*
X129977393Y-83242104D01*
X129780974Y-83342187D01*
X129602641Y-83471752D01*
X129602636Y-83471756D01*
X129446756Y-83627636D01*
X129446752Y-83627641D01*
X129317187Y-83805974D01*
X129217104Y-84002393D01*
X129217103Y-84002396D01*
X129148985Y-84212047D01*
X129114500Y-84429778D01*
X126333000Y-84429778D01*
X126333000Y-81213180D01*
X126352685Y-81146141D01*
X126384115Y-81112862D01*
X126496161Y-81031456D01*
X126636456Y-80891161D01*
X126753077Y-80730646D01*
X126753089Y-80730622D01*
X126754540Y-80728256D01*
X126755338Y-80727533D01*
X126755941Y-80726704D01*
X126756115Y-80726830D01*
X126806346Y-80681375D01*
X126875275Y-80669943D01*
X126939441Y-80697592D01*
X126978473Y-80755543D01*
X126982749Y-80812431D01*
X126954500Y-80990790D01*
X126954500Y-81189209D01*
X126971605Y-81297203D01*
X126985537Y-81385168D01*
X126990356Y-81399998D01*
X127046850Y-81573868D01*
X127108021Y-81693922D01*
X127136923Y-81750646D01*
X127253544Y-81911161D01*
X127393839Y-82051456D01*
X127554354Y-82168077D01*
X127667800Y-82225880D01*
X127731131Y-82258149D01*
X127731133Y-82258149D01*
X127731136Y-82258151D01*
X127919832Y-82319463D01*
X128017814Y-82334981D01*
X128115791Y-82350500D01*
X128115796Y-82350500D01*
X128314209Y-82350500D01*
X128403278Y-82336392D01*
X128510168Y-82319463D01*
X128698864Y-82258151D01*
X128875646Y-82168077D01*
X129036161Y-82051456D01*
X129176456Y-81911161D01*
X129293077Y-81750646D01*
X129383151Y-81573864D01*
X129444463Y-81385168D01*
X129471703Y-81213180D01*
X129475500Y-81189209D01*
X129475500Y-80990790D01*
X129447250Y-80812431D01*
X129444463Y-80794832D01*
X129383151Y-80606136D01*
X129383149Y-80606133D01*
X129383149Y-80606131D01*
X129318186Y-80478634D01*
X129293077Y-80429354D01*
X129176456Y-80268839D01*
X129065298Y-80157681D01*
X129031813Y-80096358D01*
X129036797Y-80026666D01*
X129065298Y-79982319D01*
X129076827Y-79970790D01*
X129176456Y-79871161D01*
X129293077Y-79710646D01*
X129383151Y-79533864D01*
X129444463Y-79345168D01*
X129461392Y-79238278D01*
X129475500Y-79149209D01*
X129475500Y-78950790D01*
X129453121Y-78809500D01*
X129444463Y-78754832D01*
X129383151Y-78566136D01*
X129383149Y-78566133D01*
X129383149Y-78566131D01*
X129324574Y-78451171D01*
X129293077Y-78389354D01*
X129176456Y-78228839D01*
X129065298Y-78117681D01*
X129031813Y-78056358D01*
X129036797Y-77986666D01*
X129065298Y-77942319D01*
X129100199Y-77907418D01*
X129176456Y-77831161D01*
X129293077Y-77670646D01*
X129383151Y-77493864D01*
X129444463Y-77305168D01*
X129469679Y-77145958D01*
X129475500Y-77109209D01*
X129475500Y-76910790D01*
X129457615Y-76797872D01*
X129444463Y-76714832D01*
X129383151Y-76526136D01*
X129383149Y-76526133D01*
X129383149Y-76526131D01*
X129350880Y-76462800D01*
X129293077Y-76349354D01*
X129176456Y-76188839D01*
X129036161Y-76048544D01*
X128875646Y-75931923D01*
X128875642Y-75931920D01*
X128874697Y-75931341D01*
X128874413Y-75931027D01*
X128871704Y-75929059D01*
X128872117Y-75928489D01*
X128827828Y-75879523D01*
X128815500Y-75825621D01*
X128815500Y-74105944D01*
X128812646Y-74095289D01*
X128812646Y-74095288D01*
X128790512Y-74012685D01*
X128774577Y-73953215D01*
X128728276Y-73873020D01*
X128695520Y-73816284D01*
X128583716Y-73704480D01*
X128583715Y-73704479D01*
X128579385Y-73700149D01*
X128579374Y-73700139D01*
X127910090Y-73030855D01*
X127910088Y-73030852D01*
X127791217Y-72911981D01*
X127791216Y-72911980D01*
X127704404Y-72861860D01*
X127704404Y-72861859D01*
X127704400Y-72861858D01*
X127654285Y-72832923D01*
X127501557Y-72791999D01*
X127343443Y-72791999D01*
X127335847Y-72791999D01*
X127335831Y-72792000D01*
X121115020Y-72792000D01*
X121047981Y-72772315D01*
X121002226Y-72719511D01*
X120993768Y-72693959D01*
X120992857Y-72689707D01*
X120979773Y-72650221D01*
X120937671Y-72523166D01*
X120880069Y-72429778D01*
X129114500Y-72429778D01*
X129114500Y-72650221D01*
X129148985Y-72867952D01*
X129217103Y-73077603D01*
X129217104Y-73077606D01*
X129317187Y-73274025D01*
X129446752Y-73452358D01*
X129446756Y-73452363D01*
X129602636Y-73608243D01*
X129602641Y-73608247D01*
X129729121Y-73700139D01*
X129780978Y-73737815D01*
X129909375Y-73803237D01*
X129977393Y-73837895D01*
X129977396Y-73837896D01*
X130082221Y-73871955D01*
X130187049Y-73906015D01*
X130404778Y-73940500D01*
X130404779Y-73940500D01*
X130625221Y-73940500D01*
X130625222Y-73940500D01*
X130842951Y-73906015D01*
X131052606Y-73837895D01*
X131249022Y-73737815D01*
X131427365Y-73608242D01*
X131583242Y-73452365D01*
X131712815Y-73274022D01*
X131812895Y-73077606D01*
X131881015Y-72867951D01*
X131915500Y-72650222D01*
X131915500Y-72429778D01*
X131881015Y-72212049D01*
X131826104Y-72043047D01*
X131812896Y-72002396D01*
X131812895Y-72002393D01*
X131778237Y-71934375D01*
X131712815Y-71805978D01*
X131617867Y-71675292D01*
X131583247Y-71627641D01*
X131583243Y-71627636D01*
X131427363Y-71471756D01*
X131427358Y-71471752D01*
X131249025Y-71342187D01*
X131249024Y-71342186D01*
X131249022Y-71342185D01*
X131186096Y-71310122D01*
X131052606Y-71242104D01*
X131052603Y-71242103D01*
X130842952Y-71173985D01*
X130734086Y-71156742D01*
X130625222Y-71139500D01*
X130404778Y-71139500D01*
X130332201Y-71150995D01*
X130187047Y-71173985D01*
X129977396Y-71242103D01*
X129977393Y-71242104D01*
X129780974Y-71342187D01*
X129602641Y-71471752D01*
X129602636Y-71471756D01*
X129446756Y-71627636D01*
X129446752Y-71627641D01*
X129317187Y-71805974D01*
X129217104Y-72002393D01*
X129217103Y-72002396D01*
X129148985Y-72212047D01*
X129114500Y-72429778D01*
X120880069Y-72429778D01*
X120845569Y-72373844D01*
X120721513Y-72249788D01*
X120721512Y-72249787D01*
X120686252Y-72228039D01*
X120639527Y-72176091D01*
X120628304Y-72107129D01*
X120656147Y-72043047D01*
X120686252Y-72016961D01*
X120721513Y-71995212D01*
X120845569Y-71871156D01*
X120937671Y-71721834D01*
X120992856Y-71555297D01*
X120992856Y-71555293D01*
X120993769Y-71551033D01*
X121027056Y-71489602D01*
X121088271Y-71455919D01*
X121115020Y-71453000D01*
X123694985Y-71453000D01*
X123762024Y-71472685D01*
X123807779Y-71525489D01*
X123809547Y-71529550D01*
X123815607Y-71544182D01*
X123903210Y-71675288D01*
X123903213Y-71675292D01*
X124014707Y-71786786D01*
X124014711Y-71786789D01*
X124145814Y-71874390D01*
X124145827Y-71874397D01*
X124291498Y-71934735D01*
X124291503Y-71934737D01*
X124446153Y-71965499D01*
X124446156Y-71965500D01*
X124446158Y-71965500D01*
X124603844Y-71965500D01*
X124603845Y-71965499D01*
X124758497Y-71934737D01*
X124904179Y-71874394D01*
X125035289Y-71786789D01*
X125146789Y-71675289D01*
X125234394Y-71544179D01*
X125240454Y-71529550D01*
X125257000Y-71489602D01*
X125294737Y-71398497D01*
X125325500Y-71243842D01*
X125325500Y-71086158D01*
X125325500Y-71086155D01*
X125325499Y-71086153D01*
X125294738Y-70931510D01*
X125294737Y-70931503D01*
X125294735Y-70931498D01*
X125234397Y-70785827D01*
X125234390Y-70785814D01*
X125146789Y-70654711D01*
X125146786Y-70654707D01*
X125035292Y-70543213D01*
X125035288Y-70543210D01*
X124904185Y-70455609D01*
X124904172Y-70455602D01*
X124758501Y-70395264D01*
X124758489Y-70395261D01*
X124603845Y-70364500D01*
X124603842Y-70364500D01*
X124601486Y-70364500D01*
X124600115Y-70364132D01*
X124597782Y-70363903D01*
X124597819Y-70363517D01*
X124585997Y-70360350D01*
X124572254Y-70361005D01*
X124539487Y-70347888D01*
X124494404Y-70321860D01*
X124494402Y-70321858D01*
X124494401Y-70321858D01*
X124444285Y-70292923D01*
X124291557Y-70251999D01*
X124133443Y-70251999D01*
X124125847Y-70251999D01*
X124125831Y-70252000D01*
X121115020Y-70252000D01*
X121047981Y-70232315D01*
X121002226Y-70179511D01*
X120993768Y-70153959D01*
X120992857Y-70149707D01*
X120992856Y-70149703D01*
X120937671Y-69983166D01*
X120845569Y-69833844D01*
X120721513Y-69709788D01*
X120572191Y-69617686D01*
X120405654Y-69562501D01*
X120405652Y-69562500D01*
X120302867Y-69552000D01*
X119102855Y-69552000D01*
X119102838Y-69552001D01*
X119000060Y-69562500D01*
X119000057Y-69562501D01*
X118833525Y-69617685D01*
X118833520Y-69617687D01*
X118684199Y-69709789D01*
X118560146Y-69833842D01*
X118468044Y-69983163D01*
X118468043Y-69983166D01*
X118412858Y-70149703D01*
X118412858Y-70149704D01*
X118412857Y-70149704D01*
X118402357Y-70252483D01*
X117870000Y-70252483D01*
X117870000Y-63874038D01*
X131399500Y-63874038D01*
X131399500Y-64125961D01*
X131438910Y-64374785D01*
X131516760Y-64614383D01*
X131631132Y-64838848D01*
X131779201Y-65042649D01*
X131779205Y-65042654D01*
X131957345Y-65220794D01*
X131957350Y-65220798D01*
X132135117Y-65349952D01*
X132161155Y-65368870D01*
X132304184Y-65441747D01*
X132385616Y-65483239D01*
X132385618Y-65483239D01*
X132385621Y-65483241D01*
X132625215Y-65561090D01*
X132874038Y-65600500D01*
X132874039Y-65600500D01*
X133125961Y-65600500D01*
X133125962Y-65600500D01*
X133374785Y-65561090D01*
X133614379Y-65483241D01*
X133838845Y-65368870D01*
X134042656Y-65220793D01*
X134220793Y-65042656D01*
X134368870Y-64838845D01*
X134483241Y-64614379D01*
X134561090Y-64374785D01*
X134600500Y-64125962D01*
X134600500Y-63874038D01*
X134561090Y-63625215D01*
X134483241Y-63385621D01*
X134483239Y-63385618D01*
X134483239Y-63385616D01*
X134441747Y-63304184D01*
X134368870Y-63161155D01*
X134240268Y-62984149D01*
X134220798Y-62957350D01*
X134220794Y-62957345D01*
X134042654Y-62779205D01*
X134042649Y-62779201D01*
X133838848Y-62631132D01*
X133838847Y-62631131D01*
X133838845Y-62631130D01*
X133768747Y-62595413D01*
X133614383Y-62516760D01*
X133374785Y-62438910D01*
X133125962Y-62399500D01*
X132874038Y-62399500D01*
X132749626Y-62419205D01*
X132625214Y-62438910D01*
X132385616Y-62516760D01*
X132161151Y-62631132D01*
X131957350Y-62779201D01*
X131957345Y-62779205D01*
X131779205Y-62957345D01*
X131779201Y-62957350D01*
X131631132Y-63161151D01*
X131516760Y-63385616D01*
X131438910Y-63625214D01*
X131399500Y-63874038D01*
X117870000Y-63874038D01*
X117870000Y-60624500D01*
X117889685Y-60557461D01*
X117942489Y-60511706D01*
X117994000Y-60500500D01*
X132934108Y-60500500D01*
X132996949Y-60500500D01*
X133003032Y-60500648D01*
G37*
%TD.AperFunction*%
%TD*%
%TA.AperFunction,Conductor*%
%TO.N,GNDA*%
G36*
X110732361Y-85110185D02*
G01*
X110778116Y-85162989D01*
X110788680Y-85201898D01*
X110792858Y-85242797D01*
X110792858Y-85242799D01*
X110848042Y-85409331D01*
X110848044Y-85409336D01*
X110940146Y-85558657D01*
X111064200Y-85682711D01*
X111064204Y-85682714D01*
X111099462Y-85704462D01*
X111146187Y-85756410D01*
X111157408Y-85825372D01*
X111129565Y-85889454D01*
X111099462Y-85915538D01*
X111064204Y-85937285D01*
X111064200Y-85937288D01*
X110940146Y-86061342D01*
X110862411Y-86187372D01*
X110810463Y-86234096D01*
X110741500Y-86245319D01*
X110677418Y-86217475D01*
X110669191Y-86209956D01*
X109761417Y-85302181D01*
X109727932Y-85240858D01*
X109732916Y-85171166D01*
X109774788Y-85115233D01*
X109840252Y-85090816D01*
X109849098Y-85090500D01*
X110665322Y-85090500D01*
X110732361Y-85110185D01*
G37*
%TD.AperFunction*%
%TA.AperFunction,Conductor*%
G36*
X113747499Y-60520185D02*
G01*
X113793254Y-60572989D01*
X113804460Y-60624463D01*
X113815491Y-97375466D01*
X113795828Y-97442508D01*
X113743037Y-97488279D01*
X113691492Y-97499500D01*
X88003051Y-97499500D01*
X87996968Y-97499351D01*
X87976900Y-97498365D01*
X87663071Y-97482947D01*
X87650962Y-97481754D01*
X87323305Y-97433151D01*
X87311369Y-97430777D01*
X86990055Y-97350292D01*
X86978411Y-97346759D01*
X86666540Y-97235170D01*
X86655301Y-97230515D01*
X86355844Y-97088883D01*
X86345121Y-97083150D01*
X86061011Y-96912862D01*
X86050893Y-96906102D01*
X85784829Y-96708775D01*
X85775423Y-96701055D01*
X85736475Y-96665755D01*
X85529986Y-96478604D01*
X85521395Y-96470013D01*
X85298944Y-96224576D01*
X85291224Y-96215170D01*
X85093897Y-95949106D01*
X85087137Y-95938988D01*
X84916844Y-95654871D01*
X84911120Y-95644163D01*
X84769479Y-95344688D01*
X84764829Y-95333459D01*
X84724518Y-95220798D01*
X84660778Y-95042656D01*
X84653240Y-95021588D01*
X84649707Y-95009944D01*
X84606849Y-94838845D01*
X84569219Y-94688617D01*
X84566848Y-94676694D01*
X84518245Y-94349037D01*
X84517052Y-94336927D01*
X84500649Y-94003032D01*
X84500500Y-93996948D01*
X84500500Y-93874038D01*
X86399500Y-93874038D01*
X86399500Y-94125961D01*
X86438910Y-94374785D01*
X86516760Y-94614383D01*
X86631132Y-94838848D01*
X86779201Y-95042649D01*
X86779205Y-95042654D01*
X86957345Y-95220794D01*
X86957350Y-95220798D01*
X87135117Y-95349952D01*
X87161155Y-95368870D01*
X87304184Y-95441747D01*
X87385616Y-95483239D01*
X87385618Y-95483239D01*
X87385621Y-95483241D01*
X87625215Y-95561090D01*
X87874038Y-95600500D01*
X87874039Y-95600500D01*
X88125961Y-95600500D01*
X88125962Y-95600500D01*
X88374785Y-95561090D01*
X88614379Y-95483241D01*
X88838845Y-95368870D01*
X89042656Y-95220793D01*
X89220793Y-95042656D01*
X89368870Y-94838845D01*
X89483241Y-94614379D01*
X89561090Y-94374785D01*
X89600500Y-94125962D01*
X89600500Y-93874038D01*
X89561090Y-93625215D01*
X89483241Y-93385621D01*
X89483239Y-93385618D01*
X89483239Y-93385616D01*
X89441747Y-93304184D01*
X89368870Y-93161155D01*
X89349952Y-93135117D01*
X89220798Y-92957350D01*
X89220794Y-92957345D01*
X89042654Y-92779205D01*
X89042649Y-92779201D01*
X88838848Y-92631132D01*
X88838847Y-92631131D01*
X88838845Y-92631130D01*
X88768747Y-92595413D01*
X88614383Y-92516760D01*
X88374785Y-92438910D01*
X88125962Y-92399500D01*
X87874038Y-92399500D01*
X87749626Y-92419205D01*
X87625214Y-92438910D01*
X87385616Y-92516760D01*
X87161151Y-92631132D01*
X86957350Y-92779201D01*
X86957345Y-92779205D01*
X86779205Y-92957345D01*
X86779201Y-92957350D01*
X86631132Y-93161151D01*
X86516760Y-93385616D01*
X86438910Y-93625214D01*
X86399500Y-93874038D01*
X84500500Y-93874038D01*
X84500500Y-85432135D01*
X85712500Y-85432135D01*
X85712500Y-88552870D01*
X85712501Y-88552876D01*
X85718908Y-88612483D01*
X85769202Y-88747328D01*
X85769206Y-88747335D01*
X85855452Y-88862544D01*
X85855455Y-88862547D01*
X85970664Y-88948793D01*
X85970671Y-88948797D01*
X86105517Y-88999091D01*
X86105516Y-88999091D01*
X86112444Y-88999835D01*
X86165127Y-89005500D01*
X87784872Y-89005499D01*
X87844483Y-88999091D01*
X87979331Y-88948796D01*
X88094546Y-88862546D01*
X88145734Y-88794166D01*
X88201667Y-88752297D01*
X88271359Y-88747313D01*
X88332682Y-88780798D01*
X88344261Y-88794161D01*
X88395454Y-88862546D01*
X88441643Y-88897123D01*
X88510664Y-88948793D01*
X88510671Y-88948797D01*
X88645517Y-88999091D01*
X88645516Y-88999091D01*
X88652444Y-88999835D01*
X88705127Y-89005500D01*
X90324872Y-89005499D01*
X90384483Y-88999091D01*
X90519331Y-88948796D01*
X90634546Y-88862546D01*
X90685734Y-88794166D01*
X90741667Y-88752297D01*
X90811359Y-88747313D01*
X90872682Y-88780798D01*
X90884261Y-88794161D01*
X90935454Y-88862546D01*
X90981643Y-88897123D01*
X91050664Y-88948793D01*
X91050671Y-88948797D01*
X91185517Y-88999091D01*
X91185516Y-88999091D01*
X91192444Y-88999835D01*
X91245127Y-89005500D01*
X92864872Y-89005499D01*
X92924483Y-88999091D01*
X93059331Y-88948796D01*
X93174546Y-88862546D01*
X93225734Y-88794166D01*
X93281667Y-88752297D01*
X93351359Y-88747313D01*
X93412682Y-88780798D01*
X93424261Y-88794161D01*
X93475454Y-88862546D01*
X93521643Y-88897123D01*
X93590664Y-88948793D01*
X93590671Y-88948797D01*
X93725517Y-88999091D01*
X93725516Y-88999091D01*
X93732444Y-88999835D01*
X93785127Y-89005500D01*
X95404872Y-89005499D01*
X95464483Y-88999091D01*
X95599331Y-88948796D01*
X95714546Y-88862546D01*
X95765734Y-88794166D01*
X95821667Y-88752297D01*
X95891359Y-88747313D01*
X95952682Y-88780798D01*
X95964261Y-88794161D01*
X96015454Y-88862546D01*
X96061643Y-88897123D01*
X96130664Y-88948793D01*
X96130671Y-88948797D01*
X96265517Y-88999091D01*
X96265516Y-88999091D01*
X96272444Y-88999835D01*
X96325127Y-89005500D01*
X97944872Y-89005499D01*
X98004483Y-88999091D01*
X98139331Y-88948796D01*
X98254546Y-88862546D01*
X98305734Y-88794166D01*
X98361667Y-88752297D01*
X98431359Y-88747313D01*
X98492682Y-88780798D01*
X98504261Y-88794161D01*
X98555454Y-88862546D01*
X98601643Y-88897123D01*
X98670664Y-88948793D01*
X98670671Y-88948797D01*
X98805517Y-88999091D01*
X98805516Y-88999091D01*
X98812444Y-88999835D01*
X98865127Y-89005500D01*
X100484872Y-89005499D01*
X100544483Y-88999091D01*
X100679331Y-88948796D01*
X100794546Y-88862546D01*
X100845734Y-88794166D01*
X100901667Y-88752297D01*
X100971359Y-88747313D01*
X101032682Y-88780798D01*
X101044261Y-88794161D01*
X101095454Y-88862546D01*
X101141643Y-88897123D01*
X101210664Y-88948793D01*
X101210671Y-88948797D01*
X101345517Y-88999091D01*
X101345516Y-88999091D01*
X101352444Y-88999835D01*
X101405127Y-89005500D01*
X103024872Y-89005499D01*
X103084483Y-88999091D01*
X103219331Y-88948796D01*
X103334546Y-88862546D01*
X103385734Y-88794166D01*
X103441667Y-88752297D01*
X103511359Y-88747313D01*
X103572682Y-88780798D01*
X103584261Y-88794161D01*
X103635454Y-88862546D01*
X103681643Y-88897123D01*
X103750664Y-88948793D01*
X103750671Y-88948797D01*
X103885517Y-88999091D01*
X103885516Y-88999091D01*
X103892444Y-88999835D01*
X103945127Y-89005500D01*
X105564872Y-89005499D01*
X105624483Y-88999091D01*
X105759331Y-88948796D01*
X105874546Y-88862546D01*
X105960796Y-88747331D01*
X106011091Y-88612483D01*
X106017500Y-88552873D01*
X106017499Y-85432128D01*
X106011091Y-85372517D01*
X105984857Y-85302181D01*
X105960797Y-85237671D01*
X105960793Y-85237664D01*
X105874547Y-85122455D01*
X105874544Y-85122452D01*
X105759335Y-85036206D01*
X105759328Y-85036202D01*
X105624482Y-84985908D01*
X105624483Y-84985908D01*
X105564883Y-84979501D01*
X105564881Y-84979500D01*
X105564873Y-84979500D01*
X105564864Y-84979500D01*
X103945129Y-84979500D01*
X103945123Y-84979501D01*
X103885516Y-84985908D01*
X103750671Y-85036202D01*
X103750664Y-85036206D01*
X103635455Y-85122452D01*
X103584266Y-85190832D01*
X103528332Y-85232702D01*
X103458640Y-85237686D01*
X103397318Y-85204200D01*
X103385734Y-85190832D01*
X103371012Y-85171166D01*
X103334546Y-85122454D01*
X103334544Y-85122453D01*
X103334544Y-85122452D01*
X103219335Y-85036206D01*
X103219329Y-85036203D01*
X103149959Y-85010329D01*
X103094025Y-84968457D01*
X103069609Y-84902992D01*
X103084461Y-84834720D01*
X103105609Y-84806468D01*
X103161789Y-84750289D01*
X103249394Y-84619179D01*
X103309737Y-84473497D01*
X103334241Y-84350309D01*
X103366626Y-84288398D01*
X103427341Y-84253824D01*
X103455858Y-84250500D01*
X106959903Y-84250500D01*
X107026942Y-84270185D01*
X107047583Y-84286818D01*
X110321284Y-87560520D01*
X110321286Y-87560521D01*
X110321290Y-87560524D01*
X110458209Y-87639573D01*
X110458216Y-87639577D01*
X110610943Y-87680501D01*
X110610945Y-87680501D01*
X110670695Y-87680501D01*
X110737734Y-87700186D01*
X110783489Y-87752990D01*
X110791949Y-87778551D01*
X110792857Y-87782796D01*
X110848042Y-87949331D01*
X110848043Y-87949334D01*
X110940145Y-88098656D01*
X111064201Y-88222712D01*
X111213523Y-88314814D01*
X111380060Y-88369999D01*
X111482848Y-88380500D01*
X112682865Y-88380499D01*
X112785654Y-88369999D01*
X112952191Y-88314814D01*
X113101513Y-88222712D01*
X113225569Y-88098656D01*
X113317671Y-87949334D01*
X113372856Y-87782797D01*
X113383357Y-87680009D01*
X113383356Y-86479992D01*
X113372856Y-86377203D01*
X113317671Y-86210666D01*
X113225569Y-86061344D01*
X113101513Y-85937288D01*
X113101512Y-85937287D01*
X113066252Y-85915539D01*
X113019527Y-85863591D01*
X113008304Y-85794629D01*
X113036147Y-85730547D01*
X113066252Y-85704461D01*
X113101513Y-85682712D01*
X113225569Y-85558656D01*
X113317671Y-85409334D01*
X113372856Y-85242797D01*
X113383357Y-85140009D01*
X113383356Y-83939992D01*
X113372856Y-83837203D01*
X113317671Y-83670666D01*
X113225569Y-83521344D01*
X113101513Y-83397288D01*
X113065774Y-83375244D01*
X113019050Y-83323297D01*
X113007829Y-83254334D01*
X113035672Y-83190252D01*
X113065776Y-83164167D01*
X113101200Y-83142317D01*
X113225172Y-83018345D01*
X113317213Y-82869124D01*
X113317215Y-82869119D01*
X113372362Y-82702697D01*
X113372363Y-82702690D01*
X113382856Y-82599986D01*
X113382857Y-82599973D01*
X113382857Y-82250000D01*
X110782858Y-82250000D01*
X110782858Y-82599986D01*
X110793351Y-82702697D01*
X110848498Y-82869119D01*
X110848500Y-82869124D01*
X110940541Y-83018345D01*
X111064512Y-83142316D01*
X111064516Y-83142319D01*
X111099938Y-83164168D01*
X111146663Y-83216116D01*
X111157884Y-83285078D01*
X111130041Y-83349160D01*
X111099939Y-83375244D01*
X111064201Y-83397287D01*
X110940146Y-83521342D01*
X110848044Y-83670663D01*
X110848043Y-83670666D01*
X110803692Y-83804505D01*
X110763921Y-83861949D01*
X110699406Y-83888772D01*
X110685988Y-83889500D01*
X109729690Y-83889500D01*
X109662651Y-83869815D01*
X109616896Y-83817011D01*
X109615129Y-83812952D01*
X109611630Y-83804504D01*
X109589394Y-83750821D01*
X109589392Y-83750819D01*
X109589392Y-83750817D01*
X109501789Y-83619711D01*
X109501786Y-83619707D01*
X109390292Y-83508213D01*
X109390288Y-83508210D01*
X109259185Y-83420609D01*
X109259172Y-83420602D01*
X109113501Y-83360264D01*
X109113489Y-83360261D01*
X108958845Y-83329500D01*
X108958842Y-83329500D01*
X108801158Y-83329500D01*
X108801155Y-83329500D01*
X108646510Y-83360261D01*
X108646498Y-83360264D01*
X108500827Y-83420602D01*
X108500814Y-83420609D01*
X108369711Y-83508210D01*
X108369707Y-83508213D01*
X108256259Y-83621662D01*
X108194936Y-83655147D01*
X108125244Y-83650163D01*
X108080897Y-83621662D01*
X107747590Y-83288355D01*
X107747588Y-83288352D01*
X107628717Y-83169481D01*
X107628716Y-83169480D01*
X107541904Y-83119360D01*
X107541904Y-83119359D01*
X107541900Y-83119358D01*
X107491785Y-83090423D01*
X107339057Y-83049499D01*
X107180943Y-83049499D01*
X107173347Y-83049499D01*
X107173331Y-83049500D01*
X103260098Y-83049500D01*
X103193059Y-83029815D01*
X103172417Y-83013181D01*
X101643781Y-81484545D01*
X101559249Y-81400013D01*
X110782857Y-81400013D01*
X110782857Y-81750000D01*
X111832857Y-81750000D01*
X112332857Y-81750000D01*
X113382856Y-81750000D01*
X113382856Y-81400028D01*
X113382855Y-81400013D01*
X113372362Y-81297302D01*
X113317215Y-81130880D01*
X113317213Y-81130875D01*
X113225172Y-80981654D01*
X113101202Y-80857684D01*
X112951981Y-80765643D01*
X112951976Y-80765641D01*
X112785554Y-80710494D01*
X112785547Y-80710493D01*
X112682843Y-80700000D01*
X112332857Y-80700000D01*
X112332857Y-81750000D01*
X111832857Y-81750000D01*
X111832857Y-80700000D01*
X111482885Y-80700000D01*
X111482869Y-80700001D01*
X111380159Y-80710494D01*
X111213737Y-80765641D01*
X111213732Y-80765643D01*
X111064511Y-80857684D01*
X110940541Y-80981654D01*
X110848500Y-81130875D01*
X110848498Y-81130880D01*
X110793351Y-81297302D01*
X110793350Y-81297309D01*
X110782857Y-81400013D01*
X101559249Y-81400013D01*
X95576250Y-75417015D01*
X95491718Y-75332483D01*
X110782357Y-75332483D01*
X110782357Y-76532501D01*
X110782358Y-76532518D01*
X110792857Y-76635296D01*
X110792858Y-76635299D01*
X110848042Y-76801831D01*
X110848043Y-76801834D01*
X110940145Y-76951156D01*
X111064201Y-77075212D01*
X111213523Y-77167314D01*
X111380060Y-77222499D01*
X111482848Y-77233000D01*
X112682865Y-77232999D01*
X112785654Y-77222499D01*
X112952191Y-77167314D01*
X113101513Y-77075212D01*
X113225569Y-76951156D01*
X113317671Y-76801834D01*
X113372856Y-76635297D01*
X113383357Y-76532509D01*
X113383356Y-75332492D01*
X113372856Y-75229703D01*
X113317671Y-75063166D01*
X113225569Y-74913844D01*
X113101513Y-74789788D01*
X113065774Y-74767744D01*
X113019050Y-74715797D01*
X113007829Y-74646834D01*
X113035672Y-74582752D01*
X113065776Y-74556667D01*
X113101200Y-74534817D01*
X113225172Y-74410845D01*
X113317213Y-74261624D01*
X113317215Y-74261619D01*
X113372362Y-74095197D01*
X113372363Y-74095190D01*
X113382856Y-73992486D01*
X113382857Y-73992473D01*
X113382857Y-73642500D01*
X110782858Y-73642500D01*
X110782858Y-73992486D01*
X110793351Y-74095197D01*
X110848498Y-74261619D01*
X110848500Y-74261624D01*
X110940541Y-74410845D01*
X111064512Y-74534816D01*
X111064516Y-74534819D01*
X111099938Y-74556668D01*
X111146663Y-74608616D01*
X111157884Y-74677578D01*
X111130041Y-74741660D01*
X111099939Y-74767744D01*
X111064201Y-74789787D01*
X110940146Y-74913842D01*
X110848044Y-75063163D01*
X110848043Y-75063166D01*
X110792858Y-75229703D01*
X110792858Y-75229704D01*
X110792857Y-75229704D01*
X110782357Y-75332483D01*
X95491718Y-75332483D01*
X93197965Y-73038730D01*
X93164480Y-72977407D01*
X93169464Y-72907715D01*
X93186376Y-72876742D01*
X93225734Y-72824166D01*
X93281667Y-72782297D01*
X93351359Y-72777313D01*
X93412682Y-72810798D01*
X93424261Y-72824161D01*
X93475454Y-72892546D01*
X93521643Y-72927123D01*
X93590664Y-72978793D01*
X93590671Y-72978797D01*
X93725517Y-73029091D01*
X93725516Y-73029091D01*
X93732444Y-73029835D01*
X93785127Y-73035500D01*
X95404872Y-73035499D01*
X95464483Y-73029091D01*
X95599331Y-72978796D01*
X95714546Y-72892546D01*
X95765734Y-72824166D01*
X95821667Y-72782297D01*
X95891359Y-72777313D01*
X95952682Y-72810798D01*
X95964261Y-72824161D01*
X96015454Y-72892546D01*
X96061643Y-72927123D01*
X96130664Y-72978793D01*
X96130671Y-72978797D01*
X96265517Y-73029091D01*
X96265516Y-73029091D01*
X96272444Y-73029835D01*
X96325127Y-73035500D01*
X97944872Y-73035499D01*
X98004483Y-73029091D01*
X98139331Y-72978796D01*
X98254546Y-72892546D01*
X98305734Y-72824166D01*
X98361667Y-72782297D01*
X98431359Y-72777313D01*
X98492682Y-72810798D01*
X98504261Y-72824161D01*
X98555454Y-72892546D01*
X98601643Y-72927123D01*
X98670664Y-72978793D01*
X98670671Y-72978797D01*
X98805517Y-73029091D01*
X98805516Y-73029091D01*
X98812444Y-73029835D01*
X98865127Y-73035500D01*
X100484872Y-73035499D01*
X100544483Y-73029091D01*
X100679331Y-72978796D01*
X100794546Y-72892546D01*
X100845734Y-72824166D01*
X100901667Y-72782297D01*
X100971359Y-72777313D01*
X101032682Y-72810798D01*
X101044261Y-72824161D01*
X101095454Y-72892546D01*
X101141643Y-72927123D01*
X101210664Y-72978793D01*
X101210671Y-72978797D01*
X101345517Y-73029091D01*
X101345516Y-73029091D01*
X101352444Y-73029835D01*
X101405127Y-73035500D01*
X103024872Y-73035499D01*
X103084483Y-73029091D01*
X103219331Y-72978796D01*
X103334546Y-72892546D01*
X103385734Y-72824166D01*
X103441667Y-72782297D01*
X103511359Y-72777313D01*
X103572682Y-72810798D01*
X103584261Y-72824161D01*
X103635454Y-72892546D01*
X103681643Y-72927123D01*
X103750664Y-72978793D01*
X103750671Y-72978797D01*
X103885517Y-73029091D01*
X103885516Y-73029091D01*
X103892444Y-73029835D01*
X103945127Y-73035500D01*
X105564872Y-73035499D01*
X105624483Y-73029091D01*
X105759331Y-72978796D01*
X105874546Y-72892546D01*
X105960796Y-72777331D01*
X106011091Y-72642483D01*
X106017500Y-72582873D01*
X106017499Y-69462128D01*
X106011091Y-69402517D01*
X105960802Y-69267686D01*
X105960797Y-69267671D01*
X105960793Y-69267664D01*
X105874547Y-69152455D01*
X105874544Y-69152452D01*
X105759335Y-69066206D01*
X105759328Y-69066202D01*
X105624482Y-69015908D01*
X105624483Y-69015908D01*
X105564883Y-69009501D01*
X105564881Y-69009500D01*
X105564873Y-69009500D01*
X105564864Y-69009500D01*
X103945129Y-69009500D01*
X103945123Y-69009501D01*
X103885516Y-69015908D01*
X103750671Y-69066202D01*
X103750664Y-69066206D01*
X103635455Y-69152452D01*
X103584266Y-69220832D01*
X103528332Y-69262702D01*
X103458640Y-69267686D01*
X103397318Y-69234200D01*
X103385734Y-69220832D01*
X103371222Y-69201447D01*
X103334546Y-69152454D01*
X103334544Y-69152453D01*
X103334544Y-69152452D01*
X103219335Y-69066206D01*
X103219328Y-69066202D01*
X103084482Y-69015908D01*
X103084483Y-69015908D01*
X103024883Y-69009501D01*
X103024881Y-69009500D01*
X103024873Y-69009500D01*
X103024864Y-69009500D01*
X101405129Y-69009500D01*
X101405123Y-69009501D01*
X101345516Y-69015908D01*
X101210671Y-69066202D01*
X101210664Y-69066206D01*
X101095455Y-69152452D01*
X101044266Y-69220832D01*
X100988332Y-69262702D01*
X100918640Y-69267686D01*
X100857318Y-69234200D01*
X100845734Y-69220832D01*
X100831222Y-69201447D01*
X100794546Y-69152454D01*
X100794544Y-69152453D01*
X100794544Y-69152452D01*
X100679335Y-69066206D01*
X100679328Y-69066202D01*
X100637021Y-69050423D01*
X100581087Y-69008552D01*
X100556670Y-68943088D01*
X100571522Y-68874815D01*
X100592669Y-68846564D01*
X101912416Y-67526819D01*
X101973739Y-67493334D01*
X102000097Y-67490500D01*
X109122199Y-67490500D01*
X109189238Y-67510185D01*
X109234993Y-67562989D01*
X109239903Y-67575492D01*
X109267686Y-67659334D01*
X109359788Y-67808656D01*
X109483844Y-67932712D01*
X109633166Y-68024814D01*
X109799703Y-68079999D01*
X109902491Y-68090500D01*
X110527508Y-68090499D01*
X110527516Y-68090498D01*
X110527519Y-68090498D01*
X110605745Y-68082507D01*
X110630297Y-68079999D01*
X110796834Y-68024814D01*
X110946156Y-67932712D01*
X111039819Y-67839049D01*
X111042597Y-67837531D01*
X111044250Y-67834831D01*
X111073063Y-67820896D01*
X111101142Y-67805564D01*
X111104299Y-67805789D01*
X111107150Y-67804411D01*
X111138916Y-67808265D01*
X111170834Y-67810548D01*
X111174312Y-67812560D01*
X111176511Y-67812827D01*
X111186608Y-67819673D01*
X111206616Y-67831249D01*
X111211079Y-67834947D01*
X111308844Y-67932712D01*
X111387957Y-67981509D01*
X111394616Y-67987026D01*
X111409508Y-68009111D01*
X111427321Y-68028915D01*
X111429587Y-68038890D01*
X111433678Y-68044956D01*
X111433969Y-68058170D01*
X111439500Y-68082507D01*
X111439500Y-69453263D01*
X111419815Y-69520302D01*
X111367011Y-69566057D01*
X111354505Y-69570969D01*
X111213523Y-69617686D01*
X111213520Y-69617687D01*
X111064199Y-69709789D01*
X110940146Y-69833842D01*
X110848044Y-69983163D01*
X110848043Y-69983166D01*
X110792858Y-70149703D01*
X110792858Y-70149704D01*
X110792857Y-70149704D01*
X110782357Y-70252483D01*
X110782357Y-71452501D01*
X110782358Y-71452518D01*
X110792857Y-71555296D01*
X110792858Y-71555299D01*
X110848042Y-71721831D01*
X110848044Y-71721836D01*
X110940146Y-71871157D01*
X111064201Y-71995212D01*
X111099937Y-72017254D01*
X111146662Y-72069202D01*
X111157885Y-72138164D01*
X111130042Y-72202246D01*
X111099940Y-72228330D01*
X111064516Y-72250180D01*
X111064512Y-72250183D01*
X110940541Y-72374154D01*
X110848500Y-72523375D01*
X110848498Y-72523380D01*
X110793351Y-72689802D01*
X110793350Y-72689809D01*
X110782857Y-72792513D01*
X110782857Y-73142500D01*
X113382856Y-73142500D01*
X113382856Y-72792528D01*
X113382855Y-72792513D01*
X113372362Y-72689802D01*
X113317215Y-72523380D01*
X113317213Y-72523375D01*
X113225172Y-72374154D01*
X113101200Y-72250182D01*
X113065774Y-72228331D01*
X113019050Y-72176383D01*
X113007829Y-72107420D01*
X113035673Y-72043338D01*
X113065772Y-72017256D01*
X113101513Y-71995212D01*
X113225569Y-71871156D01*
X113317671Y-71721834D01*
X113372856Y-71555297D01*
X113383357Y-71452509D01*
X113383356Y-70252492D01*
X113372856Y-70149703D01*
X113317671Y-69983166D01*
X113225569Y-69833844D01*
X113101513Y-69709788D01*
X112952191Y-69617686D01*
X112785654Y-69562501D01*
X112785652Y-69562500D01*
X112751896Y-69559052D01*
X112687205Y-69532655D01*
X112647054Y-69475474D01*
X112640500Y-69435694D01*
X112640500Y-68082507D01*
X112660185Y-68015468D01*
X112699403Y-67976968D01*
X112771156Y-67932712D01*
X112895212Y-67808656D01*
X112987314Y-67659334D01*
X113042499Y-67492797D01*
X113053000Y-67390009D01*
X113052999Y-66389992D01*
X113042499Y-66287203D01*
X112987314Y-66120666D01*
X112895212Y-65971344D01*
X112771156Y-65847288D01*
X112621834Y-65755186D01*
X112455297Y-65700001D01*
X112455295Y-65700000D01*
X112352510Y-65689500D01*
X111727498Y-65689500D01*
X111727480Y-65689501D01*
X111624703Y-65700000D01*
X111624700Y-65700001D01*
X111458168Y-65755185D01*
X111458163Y-65755187D01*
X111308842Y-65847289D01*
X111215181Y-65940951D01*
X111153858Y-65974436D01*
X111084166Y-65969452D01*
X111039819Y-65940951D01*
X110946157Y-65847289D01*
X110946156Y-65847288D01*
X110796834Y-65755186D01*
X110630297Y-65700001D01*
X110630295Y-65700000D01*
X110527510Y-65689500D01*
X109902498Y-65689500D01*
X109902480Y-65689501D01*
X109799703Y-65700000D01*
X109799700Y-65700001D01*
X109633168Y-65755185D01*
X109633163Y-65755187D01*
X109483842Y-65847289D01*
X109359789Y-65971342D01*
X109267687Y-66120663D01*
X109267685Y-66120668D01*
X109239905Y-66204504D01*
X109200132Y-66261949D01*
X109135616Y-66288772D01*
X109122199Y-66289500D01*
X101779057Y-66289500D01*
X101620943Y-66289500D01*
X101468215Y-66330423D01*
X101468214Y-66330423D01*
X101468212Y-66330424D01*
X101468209Y-66330425D01*
X101418096Y-66359359D01*
X101418095Y-66359360D01*
X101374689Y-66384420D01*
X101331285Y-66409479D01*
X101331282Y-66409481D01*
X99219481Y-68521282D01*
X99219479Y-68521285D01*
X99169361Y-68608094D01*
X99169359Y-68608096D01*
X99140425Y-68658209D01*
X99140424Y-68658210D01*
X99140423Y-68658215D01*
X99099499Y-68810943D01*
X99099499Y-68810945D01*
X99099499Y-68885500D01*
X99079814Y-68952539D01*
X99027010Y-68998294D01*
X98975500Y-69009500D01*
X98865130Y-69009500D01*
X98865123Y-69009501D01*
X98805516Y-69015908D01*
X98670671Y-69066202D01*
X98670664Y-69066206D01*
X98555455Y-69152452D01*
X98504266Y-69220832D01*
X98448332Y-69262702D01*
X98378640Y-69267686D01*
X98317318Y-69234200D01*
X98305734Y-69220832D01*
X98291222Y-69201447D01*
X98254546Y-69152454D01*
X98254544Y-69152453D01*
X98254544Y-69152452D01*
X98139335Y-69066206D01*
X98139328Y-69066202D01*
X98004482Y-69015908D01*
X98004483Y-69015908D01*
X97944883Y-69009501D01*
X97944881Y-69009500D01*
X97944873Y-69009500D01*
X97944864Y-69009500D01*
X96325129Y-69009500D01*
X96325123Y-69009501D01*
X96265516Y-69015908D01*
X96130671Y-69066202D01*
X96130664Y-69066206D01*
X96015455Y-69152452D01*
X95964266Y-69220832D01*
X95908332Y-69262702D01*
X95838640Y-69267686D01*
X95777318Y-69234200D01*
X95765734Y-69220832D01*
X95751222Y-69201447D01*
X95714546Y-69152454D01*
X95714544Y-69152453D01*
X95714544Y-69152452D01*
X95599335Y-69066206D01*
X95599328Y-69066202D01*
X95464482Y-69015908D01*
X95464483Y-69015908D01*
X95404883Y-69009501D01*
X95404881Y-69009500D01*
X95404873Y-69009500D01*
X95404864Y-69009500D01*
X93785129Y-69009500D01*
X93785123Y-69009501D01*
X93725516Y-69015908D01*
X93590671Y-69066202D01*
X93590664Y-69066206D01*
X93475455Y-69152452D01*
X93424266Y-69220832D01*
X93368332Y-69262702D01*
X93298640Y-69267686D01*
X93237318Y-69234200D01*
X93225734Y-69220832D01*
X93211222Y-69201447D01*
X93174546Y-69152454D01*
X93174544Y-69152453D01*
X93174544Y-69152452D01*
X93059335Y-69066206D01*
X93059328Y-69066202D01*
X92924482Y-69015908D01*
X92924483Y-69015908D01*
X92864883Y-69009501D01*
X92864881Y-69009500D01*
X92864873Y-69009500D01*
X92864864Y-69009500D01*
X91245129Y-69009500D01*
X91245123Y-69009501D01*
X91185516Y-69015908D01*
X91050671Y-69066202D01*
X91050664Y-69066206D01*
X90935455Y-69152452D01*
X90883953Y-69221249D01*
X90828018Y-69263120D01*
X90758327Y-69268103D01*
X90697004Y-69234617D01*
X90685420Y-69221248D01*
X90634186Y-69152808D01*
X90519093Y-69066649D01*
X90519086Y-69066645D01*
X90384379Y-69016403D01*
X90384372Y-69016401D01*
X90324844Y-69010000D01*
X89765000Y-69010000D01*
X89765000Y-73035000D01*
X90324828Y-73035000D01*
X90324844Y-73034999D01*
X90384372Y-73028598D01*
X90384379Y-73028596D01*
X90519086Y-72978354D01*
X90519093Y-72978350D01*
X90634187Y-72892190D01*
X90634188Y-72892189D01*
X90685420Y-72823752D01*
X90741353Y-72781880D01*
X90811045Y-72776896D01*
X90872368Y-72810381D01*
X90883953Y-72823750D01*
X90884266Y-72824168D01*
X90935187Y-72892190D01*
X90935455Y-72892547D01*
X91050664Y-72978793D01*
X91050671Y-72978797D01*
X91095618Y-72995561D01*
X91185517Y-73029091D01*
X91245127Y-73035500D01*
X91468295Y-73035499D01*
X91535335Y-73055183D01*
X91561658Y-73077894D01*
X91569630Y-73087015D01*
X91599480Y-73138716D01*
X91711284Y-73250520D01*
X91711286Y-73250521D01*
X91721294Y-73260529D01*
X101966661Y-83505897D01*
X102000146Y-83567220D01*
X101995162Y-83636912D01*
X101966662Y-83681258D01*
X101918214Y-83729706D01*
X101918210Y-83729711D01*
X101830609Y-83860814D01*
X101830602Y-83860827D01*
X101770264Y-84006498D01*
X101770261Y-84006510D01*
X101739500Y-84161153D01*
X101739500Y-84172664D01*
X101735350Y-84188152D01*
X101736005Y-84201895D01*
X101722889Y-84234661D01*
X101709362Y-84258092D01*
X101709359Y-84258096D01*
X101680425Y-84308209D01*
X101680424Y-84308210D01*
X101680423Y-84308215D01*
X101639499Y-84460943D01*
X101639499Y-84460945D01*
X101639499Y-84629046D01*
X101639500Y-84629059D01*
X101639500Y-84855500D01*
X101619815Y-84922539D01*
X101567011Y-84968294D01*
X101515501Y-84979500D01*
X101405130Y-84979500D01*
X101405123Y-84979501D01*
X101345516Y-84985908D01*
X101210671Y-85036202D01*
X101210664Y-85036206D01*
X101095455Y-85122452D01*
X101044266Y-85190832D01*
X100988332Y-85232702D01*
X100918640Y-85237686D01*
X100857318Y-85204200D01*
X100845734Y-85190832D01*
X100831012Y-85171166D01*
X100794546Y-85122454D01*
X100794544Y-85122453D01*
X100794544Y-85122452D01*
X100679335Y-85036206D01*
X100679328Y-85036202D01*
X100544482Y-84985908D01*
X100544483Y-84985908D01*
X100484883Y-84979501D01*
X100484881Y-84979500D01*
X100484873Y-84979500D01*
X100484864Y-84979500D01*
X98865129Y-84979500D01*
X98865123Y-84979501D01*
X98805516Y-84985908D01*
X98670671Y-85036202D01*
X98670664Y-85036206D01*
X98555455Y-85122452D01*
X98504266Y-85190832D01*
X98448332Y-85232702D01*
X98378640Y-85237686D01*
X98317318Y-85204200D01*
X98305734Y-85190832D01*
X98291012Y-85171166D01*
X98254546Y-85122454D01*
X98254544Y-85122453D01*
X98254544Y-85122452D01*
X98139335Y-85036206D01*
X98139328Y-85036202D01*
X98004482Y-84985908D01*
X98004483Y-84985908D01*
X97944883Y-84979501D01*
X97944881Y-84979500D01*
X97944873Y-84979500D01*
X97944864Y-84979500D01*
X96325129Y-84979500D01*
X96325123Y-84979501D01*
X96265516Y-84985908D01*
X96130671Y-85036202D01*
X96130664Y-85036206D01*
X96015455Y-85122452D01*
X95964266Y-85190832D01*
X95908332Y-85232702D01*
X95838640Y-85237686D01*
X95777318Y-85204200D01*
X95765734Y-85190832D01*
X95751012Y-85171166D01*
X95714546Y-85122454D01*
X95714544Y-85122453D01*
X95714544Y-85122452D01*
X95599335Y-85036206D01*
X95599328Y-85036202D01*
X95464482Y-84985908D01*
X95464483Y-84985908D01*
X95404883Y-84979501D01*
X95404881Y-84979500D01*
X95404873Y-84979500D01*
X95404864Y-84979500D01*
X93785129Y-84979500D01*
X93785123Y-84979501D01*
X93725516Y-84985908D01*
X93590671Y-85036202D01*
X93590664Y-85036206D01*
X93475455Y-85122452D01*
X93424266Y-85190832D01*
X93368332Y-85232702D01*
X93298640Y-85237686D01*
X93237318Y-85204200D01*
X93225734Y-85190832D01*
X93211012Y-85171166D01*
X93174546Y-85122454D01*
X93174544Y-85122453D01*
X93174544Y-85122452D01*
X93059335Y-85036206D01*
X93059328Y-85036202D01*
X92924482Y-84985908D01*
X92924483Y-84985908D01*
X92864883Y-84979501D01*
X92864881Y-84979500D01*
X92864873Y-84979500D01*
X92864864Y-84979500D01*
X91245129Y-84979500D01*
X91245123Y-84979501D01*
X91185516Y-84985908D01*
X91050671Y-85036202D01*
X91050664Y-85036206D01*
X90935455Y-85122452D01*
X90884266Y-85190832D01*
X90828332Y-85232702D01*
X90758640Y-85237686D01*
X90697318Y-85204200D01*
X90685734Y-85190832D01*
X90671012Y-85171166D01*
X90634546Y-85122454D01*
X90634544Y-85122453D01*
X90634544Y-85122452D01*
X90519335Y-85036206D01*
X90519328Y-85036202D01*
X90384482Y-84985908D01*
X90384483Y-84985908D01*
X90324883Y-84979501D01*
X90324881Y-84979500D01*
X90324873Y-84979500D01*
X90324864Y-84979500D01*
X88705129Y-84979500D01*
X88705123Y-84979501D01*
X88645516Y-84985908D01*
X88510671Y-85036202D01*
X88510664Y-85036206D01*
X88395455Y-85122452D01*
X88344266Y-85190832D01*
X88288332Y-85232702D01*
X88218640Y-85237686D01*
X88157318Y-85204200D01*
X88145734Y-85190832D01*
X88131012Y-85171166D01*
X88094546Y-85122454D01*
X88094544Y-85122453D01*
X88094544Y-85122452D01*
X87979335Y-85036206D01*
X87979328Y-85036202D01*
X87844482Y-84985908D01*
X87844483Y-84985908D01*
X87784883Y-84979501D01*
X87784881Y-84979500D01*
X87784873Y-84979500D01*
X87784864Y-84979500D01*
X86165129Y-84979500D01*
X86165123Y-84979501D01*
X86105516Y-84985908D01*
X85970671Y-85036202D01*
X85970664Y-85036206D01*
X85855455Y-85122452D01*
X85855452Y-85122455D01*
X85769206Y-85237664D01*
X85769202Y-85237671D01*
X85718908Y-85372517D01*
X85714950Y-85409336D01*
X85712501Y-85432123D01*
X85712500Y-85432135D01*
X84500500Y-85432135D01*
X84500500Y-69462135D01*
X85712500Y-69462135D01*
X85712500Y-72582870D01*
X85712501Y-72582876D01*
X85718908Y-72642483D01*
X85769202Y-72777328D01*
X85769206Y-72777335D01*
X85855452Y-72892544D01*
X85855455Y-72892547D01*
X85970664Y-72978793D01*
X85970671Y-72978797D01*
X86105517Y-73029091D01*
X86105516Y-73029091D01*
X86112444Y-73029835D01*
X86165127Y-73035500D01*
X87784872Y-73035499D01*
X87844483Y-73029091D01*
X87979331Y-72978796D01*
X88094546Y-72892546D01*
X88146047Y-72823749D01*
X88201979Y-72781880D01*
X88271671Y-72776896D01*
X88332994Y-72810381D01*
X88344579Y-72823751D01*
X88395813Y-72892190D01*
X88510906Y-72978350D01*
X88510913Y-72978354D01*
X88645620Y-73028596D01*
X88645627Y-73028598D01*
X88705155Y-73034999D01*
X88705172Y-73035000D01*
X89265000Y-73035000D01*
X89265000Y-69010000D01*
X88705155Y-69010000D01*
X88645627Y-69016401D01*
X88645620Y-69016403D01*
X88510913Y-69066645D01*
X88510906Y-69066649D01*
X88395812Y-69152809D01*
X88344578Y-69221249D01*
X88288644Y-69263119D01*
X88218952Y-69268103D01*
X88157630Y-69234617D01*
X88146046Y-69221248D01*
X88094547Y-69152455D01*
X88094544Y-69152452D01*
X87979335Y-69066206D01*
X87979328Y-69066202D01*
X87844482Y-69015908D01*
X87844483Y-69015908D01*
X87784883Y-69009501D01*
X87784881Y-69009500D01*
X87784873Y-69009500D01*
X87784864Y-69009500D01*
X86165129Y-69009500D01*
X86165123Y-69009501D01*
X86105516Y-69015908D01*
X85970671Y-69066202D01*
X85970664Y-69066206D01*
X85855455Y-69152452D01*
X85855452Y-69152455D01*
X85769206Y-69267664D01*
X85769202Y-69267671D01*
X85718908Y-69402517D01*
X85713453Y-69453263D01*
X85712501Y-69462123D01*
X85712500Y-69462135D01*
X84500500Y-69462135D01*
X84500500Y-64003051D01*
X84500649Y-63996967D01*
X84506688Y-63874038D01*
X86399500Y-63874038D01*
X86399500Y-64125961D01*
X86438910Y-64374785D01*
X86516760Y-64614383D01*
X86631132Y-64838848D01*
X86779201Y-65042649D01*
X86779205Y-65042654D01*
X86957345Y-65220794D01*
X86957350Y-65220798D01*
X87135117Y-65349952D01*
X87161155Y-65368870D01*
X87304184Y-65441747D01*
X87385616Y-65483239D01*
X87385618Y-65483239D01*
X87385621Y-65483241D01*
X87625215Y-65561090D01*
X87874038Y-65600500D01*
X87874039Y-65600500D01*
X88125961Y-65600500D01*
X88125962Y-65600500D01*
X88374785Y-65561090D01*
X88614379Y-65483241D01*
X88838845Y-65368870D01*
X89042656Y-65220793D01*
X89220793Y-65042656D01*
X89368870Y-64838845D01*
X89483241Y-64614379D01*
X89561090Y-64374785D01*
X89600500Y-64125962D01*
X89600500Y-63874038D01*
X89561090Y-63625215D01*
X89483241Y-63385621D01*
X89483239Y-63385618D01*
X89483239Y-63385616D01*
X89441747Y-63304184D01*
X89368870Y-63161155D01*
X89240268Y-62984149D01*
X89220798Y-62957350D01*
X89220794Y-62957345D01*
X89042654Y-62779205D01*
X89042649Y-62779201D01*
X88838848Y-62631132D01*
X88838847Y-62631131D01*
X88838845Y-62631130D01*
X88768747Y-62595413D01*
X88614383Y-62516760D01*
X88374785Y-62438910D01*
X88125962Y-62399500D01*
X87874038Y-62399500D01*
X87749626Y-62419205D01*
X87625214Y-62438910D01*
X87385616Y-62516760D01*
X87161151Y-62631132D01*
X86957350Y-62779201D01*
X86957345Y-62779205D01*
X86779205Y-62957345D01*
X86779201Y-62957350D01*
X86631132Y-63161151D01*
X86516760Y-63385616D01*
X86438910Y-63625214D01*
X86399500Y-63874038D01*
X84506688Y-63874038D01*
X84507226Y-63863082D01*
X84517052Y-63663072D01*
X84518245Y-63650962D01*
X84522064Y-63625214D01*
X84566849Y-63323296D01*
X84569218Y-63311385D01*
X84649710Y-62990043D01*
X84653240Y-62978411D01*
X84660778Y-62957344D01*
X84764835Y-62666525D01*
X84769476Y-62655318D01*
X84911124Y-62355828D01*
X84916840Y-62345136D01*
X85087145Y-62060998D01*
X85093888Y-62050905D01*
X85291232Y-61784818D01*
X85298935Y-61775433D01*
X85521405Y-61529975D01*
X85529975Y-61521405D01*
X85775433Y-61298935D01*
X85784818Y-61291232D01*
X86050905Y-61093888D01*
X86060998Y-61087145D01*
X86345136Y-60916840D01*
X86355828Y-60911124D01*
X86655318Y-60769476D01*
X86666525Y-60764835D01*
X86978412Y-60653239D01*
X86990043Y-60649710D01*
X87311385Y-60569218D01*
X87323296Y-60566849D01*
X87650962Y-60518244D01*
X87663068Y-60517052D01*
X87996967Y-60500648D01*
X88003051Y-60500500D01*
X113680460Y-60500500D01*
X113747499Y-60520185D01*
G37*
%TD.AperFunction*%
%TD*%
M02*
